<svg width="371" height="371" viewBox="0 0 371 371" fill="none" xmlns="http://www.w3.org/2000/svg">
<g clip-path="url(#clip0)">
<circle cx="185.5" cy="185.5" r="185.5" fill="#88D1FB"/>
<path d="M61.5 156.5C61.5 140.1 68.1667 94.8333 79 76C85.1128 65 79 54.5 79 46C79 37.5 160 40.5001 179.5 36.0001C199 31.5001 228.5 85.0001 228.5 90.5001C228.5 96.0001 185 100 179.5 120.5C174 141 176.5 169.5 168 174C159.5 178.5 168 156.5 160 156.5C152 156.5 108 180.5 112.5 190C117 199.5 130 212 145 212C160 212 194 212 211 231.5C228 251 203.5 305 228.5 322.5C253.5 340 190.5 331 160 330C129.5 329 83 281.5 79 257.5C75 233.5 131 231.5 130 225C129 218.5 101.5 213 94 212C86.5 211 61.5 177 61.5 156.5Z" fill="#74BA3B"/>
<path d="M275.5 126C275.5 110.4 308.333 76.5 324 62.5C338.5 77.5 353 103 359 120C355.333 122.667 341.5 135.1 333.5 139.5C323.5 145 304.5 139.5 296 152C287.5 164.5 275.5 145.5 275.5 126Z" fill="#74BA3B"/>
<path d="M313 201C313 184.6 349 168.167 367 162C380.829 206.5 354.5 266 354.5 256.5C354.5 247 313 221.5 313 201Z" fill="#74BA3B"/>
</g>
<defs>
<clipPath id="clip0">
<rect width="371" height="371" fill="white"/>
</clipPath>
</defs>
</svg>
