<svg width="400" height="400" viewBox="0 0 400 400" fill="none" xmlns="http://www.w3.org/2000/svg">
<path d="M77.8454 132.108C79.0101 80.3147 127.957 80.0849 152.286 86.4441C195.252 105.918 201.837 154.103 251.161 184.658C288.404 207.729 354.127 214.924 346.831 286.019C338.451 367.671 239.531 365.392 176.927 329.418C124.366 299.215 76.3896 196.85 77.8454 132.108Z" fill="#601A62"/>
<path d="M67.9799 140.109C66.497 109.46 81.5246 96.8382 90.6525 88.3523C91.4653 87.3471 93.0663 85.9919 95.5682 84.5138C92.4117 73.5749 82.5041 51.9855 68.126 53.1385C67.8211 47.3537 69.922 36.4619 80.7649 39.1733C88.4832 45.8961 104.28 63.4723 105.723 79.9948C111.963 77.864 120.249 75.9382 130.903 74.8696C156.454 72.3069 178.774 102.896 198.602 99.875L187.566 108.208C171.502 118.904 142.593 106.336 129.116 97.1921C129.664 113.365 153.519 137.741 167.943 144.656C164.371 148.978 152.351 149.936 146.787 149.875C109.748 140.032 103.122 124.26 96.0669 107.466L95.9596 107.211C90.0401 163.88 72.5219 169.718 58.477 165.27C62.7585 162.157 68.6385 153.722 67.9799 140.109Z" fill="#5B9F23"/>
<path d="M145.817 141.579C122.629 135.927 113.084 114.264 110.354 101.129C110.109 99.7406 108.065 95.0513 105.361 93.0208" stroke="#44771A" stroke-linecap="round" stroke-linejoin="round"/>
<path d="M125.25 81.7876C138.732 80.3078 147.792 82.9556 176.795 99.1037C180.578 101.21 181.666 102.467 188.091 101.981M88.3447 96.8986C82.4267 103.736 75.6525 107.622 74.2245 144.127C73.7592 148.661 73.7977 153.934 68.6975 158.45" stroke="#44771A" stroke-linecap="round" stroke-linejoin="round"/>
</svg>
