<svg width="400" height="400" viewBox="0 0 400 400" fill="none" xmlns="http://www.w3.org/2000/svg">
<path d="M74.1891 212.592C58.668 166.508 124.417 120.43 150.69 111.938C150.69 111.938 231.739 47.5737 276.112 92.8524C296.321 113.474 354.662 284.44 282.086 331.021C209.51 377.603 84.8329 244.196 74.1891 212.592Z" fill="#CF3C3C"/>
<path d="M93.1705 143.212C107.258 126.041 128.842 114.734 143.67 106.177C151.973 103.38 183.21 84.1482 193.09 80.4159C212.783 72.9762 225.118 79.1438 236.687 72.2837C219.315 89.6735 194.094 97.5413 183.162 101.897C196.666 117.281 209.488 112.513 219.137 116.714C192.319 132.617 175.198 134.973 159.065 121.149C160.088 131.174 154.487 144.419 151.849 149.528C142.614 167.407 132.418 171.806 117.853 179.611C121.989 177.395 126.083 164.808 127.578 155.415C128.361 150.498 129.71 143.518 130.062 129.842C125.849 134.703 126.205 137.251 107.735 154.422C97.2091 164.209 74.6687 177.339 68.9437 171.755C73.6762 168.949 79.5809 159.777 93.1705 143.212Z" fill="#74BA3B" stroke="#44771A" stroke-linejoin="round"/>
<path d="M144.556 107.843C126.959 87.4907 105.038 82.8325 96.277 83.0474C94.1879 79.3264 103.86 69.077 110.163 69.0642C115.206 69.0539 142.321 90.956 155.248 101.908C152.264 108.584 146.877 108.647 144.556 107.843Z" fill="#74BA3B"/>
<path d="M146.896 118.253C147.045 118.021 146.977 117.712 146.744 117.563C146.511 117.414 146.201 117.481 146.052 117.713L146.896 118.253ZM134.103 159.508C133.932 159.724 133.969 160.038 134.186 160.209C134.403 160.38 134.718 160.344 134.89 160.129L134.103 159.508ZM133.514 117.744C133.748 117.597 133.817 117.289 133.669 117.056C133.521 116.822 133.212 116.752 132.978 116.899L133.514 117.744ZM93.2533 151.669L92.8608 151.358L92.8608 151.358L93.2533 151.669ZM78.8902 164.567C78.6527 164.708 78.5753 165.014 78.7173 165.251C78.8593 165.488 79.167 165.566 79.4045 165.425L78.8902 164.567ZM162.815 107.819C162.539 107.796 162.298 108.001 162.276 108.275C162.253 108.55 162.459 108.791 162.735 108.814L162.815 107.819ZM204.643 120.191C204.913 120.132 205.084 119.866 205.024 119.597C204.964 119.328 204.696 119.157 204.426 119.216L204.643 120.191ZM168.123 98.1843C167.881 98.3172 167.794 98.6206 167.928 98.862C168.062 99.1034 168.367 99.1913 168.609 99.0584L168.123 98.1843ZM204.529 82.8477L204.468 82.3523L204.529 82.8477ZM218.248 80.9527C218.509 80.8609 218.645 80.5759 218.552 80.3161C218.459 80.0563 218.173 79.9201 217.912 80.0119L218.248 80.9527ZM146.052 117.713C142.287 123.561 141.42 131.469 140.421 139.11C139.412 146.823 138.27 154.269 134.103 159.508L134.89 160.129C139.257 154.636 140.413 146.897 141.415 139.241C142.425 131.514 143.28 123.87 146.896 118.253L146.052 117.713ZM132.978 116.899C126.067 121.234 107.983 132.43 92.8608 151.358L93.6457 151.98C108.655 133.194 126.612 122.072 133.514 117.744L132.978 116.899ZM92.8608 151.358C89.2756 155.846 84.5909 161.187 78.8902 164.567L79.4045 165.425C85.2723 161.945 90.0518 156.479 93.6457 151.98L92.8608 151.358ZM162.735 108.814C170.486 109.451 176.559 113.16 182.955 116.334C189.328 119.498 195.961 122.085 204.643 120.191L204.426 119.216C196.088 121.035 189.715 118.576 183.4 115.442C177.107 112.318 170.811 108.477 162.815 107.819L162.735 108.814ZM168.609 99.0584C184.753 90.1964 192.739 84.7581 204.59 83.343L204.468 82.3523C192.37 83.7969 184.157 89.3827 168.123 98.1843L168.609 99.0584ZM204.59 83.343C206.732 83.0872 209.393 82.7539 211.888 82.3544C214.372 81.9565 216.73 81.4875 218.248 80.9527L217.912 80.0119C216.488 80.5135 214.211 80.9713 211.726 81.3692C209.252 81.7654 206.608 82.0968 204.468 82.3523L204.59 83.343Z" fill="#44771A"/>
<path d="M194.244 173.86C189.43 165.833 178.13 168.388 184.779 179.473C197.389 200.5 203.414 189.15 194.244 173.86Z" fill="#FFE1A6" stroke="#DE9F23"/>
<path d="M235.624 245.234C231.051 237.608 220.895 239.692 227.211 250.223C239.191 270.198 244.336 259.759 235.624 245.234Z" fill="#FFE1A6" stroke="#DE9F23"/>
<path d="M236.588 282.844C230.965 275.947 221.213 279.453 228.979 288.978C243.708 307.044 247.299 295.981 236.588 282.844Z" fill="#FFE1A6" stroke="#DE9F23"/>
<path d="M147.942 192.774C142.442 185.195 131.41 188.72 139.005 199.186C153.411 219.039 158.417 207.21 147.942 192.774Z" fill="#FFE1A6" stroke="#DE9F23"/>
<path d="M193.954 262.5C188.05 256.059 178.206 260.489 186.359 269.383C201.824 286.255 205.199 274.768 193.954 262.5Z" fill="#FFE1A6" stroke="#DE9F23"/>
<path d="M199.327 298.663C192.571 293.112 183.451 298.875 192.782 306.54C210.48 321.081 212.196 309.236 199.327 298.663Z" fill="#FFE1A6" stroke="#DE9F23"/>
<path d="M188.196 217.104C182.696 209.525 171.664 213.05 179.259 223.516C193.666 243.369 198.672 231.54 188.196 217.104Z" fill="#FFE1A6" stroke="#DE9F23"/>
<path d="M103.231 204.998C97.083 197.929 86.405 202.404 94.8953 212.166C111 230.684 114.942 218.464 103.231 204.998Z" fill="#FFE1A6" stroke="#DE9F23"/>
<path d="M155.554 273.763C149.168 267.794 139.697 272.965 148.516 281.208C165.244 296.843 167.717 285.132 155.554 273.763Z" fill="#FFE1A6" stroke="#DE9F23"/>
<path d="M142.256 234.294C136.042 227.282 125.406 231.855 133.987 241.539C150.264 259.907 154.092 247.651 142.256 234.294Z" fill="#FFE1A6" stroke="#DE9F23"/>
<path d="M234.153 142.416C230.878 133.655 219.3 134.137 223.824 146.235C232.404 169.182 240.393 159.102 234.153 142.416Z" fill="#FFE1A6" stroke="#DE9F23"/>
<path d="M273.748 217.367C270.693 209.199 259.898 209.648 264.116 220.928C272.117 242.325 279.565 232.926 273.748 217.367Z" fill="#FFE1A6" stroke="#DE9F23"/>
<path d="M273.772 262.894C270.564 254.784 259.779 255.434 264.209 266.634C272.611 287.878 279.882 278.342 273.772 262.894Z" fill="#FFE1A6" stroke="#DE9F23"/>
<path d="M302.309 284.527C302.865 277.505 294.797 274.181 294.029 283.879C292.573 302.273 301.25 297.902 302.309 284.527Z" fill="#FFE1A6" stroke="#DE9F23"/>
<path d="M236.488 316.757C230.138 313.636 224.039 319.851 232.808 324.161C249.443 332.336 248.584 322.702 236.488 316.757Z" fill="#FFE1A6" stroke="#DE9F23"/>
<path d="M273.53 307.789C270.212 301.565 261.61 303.062 266.191 311.656C274.881 327.959 279.848 319.643 273.53 307.789Z" fill="#FFE1A6" stroke="#DE9F23"/>
<path d="M306.159 242.655C305.032 234.013 294.412 232.034 295.968 243.969C298.919 266.607 308.305 259.117 306.159 242.655Z" fill="#FFE1A6" stroke="#DE9F23"/>
<path d="M237.802 191.288C234.526 182.528 222.949 183.009 227.472 195.107C236.053 218.054 244.041 207.974 237.802 191.288Z" fill="#FFE1A6" stroke="#DE9F23"/>
<path d="M266.32 108.171C262.283 99.7307 250.793 101.222 256.368 112.877C266.942 134.986 274.009 124.248 266.32 108.171Z" fill="#FFE1A6" stroke="#DE9F23"/>
<path d="M304.895 190.524C301.95 182.316 291.15 182.622 295.216 193.957C302.93 215.458 310.504 206.158 304.895 190.524Z" fill="#FFE1A6" stroke="#DE9F23"/>
<path d="M274.292 155.923C271.397 147.031 259.809 147.02 263.808 159.299C271.392 182.59 279.808 172.859 274.292 155.923Z" fill="#FFE1A6" stroke="#DE9F23"/>
</svg>
