<svg xmlns="http://www.w3.org/2000/svg" viewBox="0 0 150 200"><title>cards</title><g id="club"><circle cx="31.79" cy="47.88" r="8.63"/><circle cx="40.42" cy="34.99" r="8.63"/><circle cx="49.05" cy="47.88" r="8.63"/><path d="M34.35,61.77S39.69,58,39,42.63H42s.52,18.62,4.45,19.14Z"/><circle cx="122.45" cy="148.95" r="8.63"/><circle cx="113.82" cy="161.84" r="8.63"/><circle cx="105.2" cy="148.95" r="8.63"/><path d="M119.89,135.06s-5.33,3.79-4.61,19.14H112.2s-.51-18.63-4.44-19.14Z"/><circle cx="103.39" cy="47.82" r="8.63"/><circle cx="112.02" cy="34.94" r="8.63"/><circle cx="120.65" cy="47.82" r="8.63"/><path d="M106,61.71s5.34-3.78,4.62-19.13h3.07s.51,18.62,4.44,19.13Z"/><circle cx="50.05" cy="149.3" r="8.63"/><circle cx="41.42" cy="162.19" r="8.63"/><circle cx="32.79" cy="149.3" r="8.63"/><path d="M47.49,135.41s-5.34,3.79-4.62,19.14H39.8s-.52-18.63-4.45-19.14Z"/></g></svg>