<svg xmlns="http://www.w3.org/2000/svg" viewBox="0 0 150 200"><title>cards</title><g id="spade"><ellipse cx="37.4" cy="38.3" rx="3" ry="4.38" transform="translate(-0.32 0.31) rotate(-0.48)"/><polygon points="48.88 36.65 37.91 24.6 25.07 36.92 48.88 36.65"/><ellipse cx="30.22" cy="43.93" rx="7.85" ry="9.27" transform="translate(-0.36 0.25) rotate(-0.48)"/><ellipse cx="43.92" cy="43.81" rx="7.85" ry="9.27" transform="translate(-0.36 0.37) rotate(-0.48)"/><path d="M38.47,50.47s.27,8.33,3.35,9.38l-9.37.08s3.56-2.09,3.33-9.44S38.47,50.47,38.47,50.47Z"/><ellipse cx="38.46" cy="157.75" rx="3" ry="4.38" transform="translate(-1.31 0.33) rotate(-0.48)"/><polygon points="26.98 159.39 37.96 171.45 50.8 159.12 26.98 159.39"/><ellipse cx="45.65" cy="152.12" rx="7.85" ry="9.27" transform="translate(-1.26 0.38) rotate(-0.48)"/><ellipse cx="31.95" cy="152.23" rx="7.85" ry="9.27" transform="translate(-1.26 0.27) rotate(-0.48)"/><path d="M37.39,145.58s-.26-8.33-3.34-9.38l9.37-.08s-3.56,2.09-3.33,9.43S37.39,145.58,37.39,145.58Z"/><ellipse cx="111.97" cy="39.29" rx="3" ry="4.38" transform="translate(-0.32 0.93) rotate(-0.48)"/><polygon points="123.45 37.64 112.48 25.59 99.64 37.91 123.45 37.64"/><ellipse cx="104.79" cy="44.92" rx="7.85" ry="9.27" transform="translate(-0.37 0.87) rotate(-0.48)"/><ellipse cx="118.49" cy="44.8" rx="7.85" ry="9.27" transform="translate(-0.37 0.99) rotate(-0.48)"/><path d="M113,51.46s.27,8.32,3.35,9.38l-9.38.07s3.56-2.08,3.33-9.43S113,51.46,113,51.46Z"/><ellipse cx="110.87" cy="157.55" rx="3" ry="4.38" transform="translate(-1.31 0.93) rotate(-0.48)"/><polygon points="99.39 159.2 110.36 171.26 123.2 158.93 99.39 159.2"/><ellipse cx="118.05" cy="151.93" rx="7.85" ry="9.27" transform="translate(-1.26 0.99) rotate(-0.48)"/><ellipse cx="104.35" cy="152.04" rx="7.85" ry="9.27" transform="translate(-1.26 0.87) rotate(-0.48)"/><path d="M109.8,145.39s-.27-8.33-3.35-9.38l9.37-.08s-3.55,2.09-3.32,9.43S109.8,145.39,109.8,145.39Z"/></g></svg>