<svg xmlns="http://www.w3.org/2000/svg" viewBox="0 0 150 200"><defs><style>.cls-1{fill:#ed2024;}</style></defs><title>cards</title><g id="heart"><ellipse class="cls-1" cx="41.09" cy="49.99" rx="3.27" ry="4.77"/><polygon class="cls-1" points="28.55 51.68 40.42 64.94 54.54 51.6 28.55 51.68"/><ellipse class="cls-1" cx="48.98" cy="43.91" rx="8.56" ry="10.12"/><ellipse class="cls-1" cx="34.04" cy="43.91" rx="8.56" ry="10.12"/><ellipse class="cls-1" cx="110.79" cy="50.34" rx="3.27" ry="4.77"/><polygon class="cls-1" points="98.25 52.04 110.11 65.29 124.23 51.96 98.25 52.04"/><ellipse class="cls-1" cx="118.68" cy="44.27" rx="8.56" ry="10.12"/><ellipse class="cls-1" cx="103.73" cy="44.27" rx="8.56" ry="10.12"/><ellipse class="cls-1" cx="40.27" cy="149.52" rx="3.27" ry="4.77"/><polygon class="cls-1" points="52.81 147.83 40.94 134.58 26.82 147.91 52.81 147.83"/><ellipse class="cls-1" cx="32.38" cy="155.6" rx="8.56" ry="10.12"/><ellipse class="cls-1" cx="47.32" cy="155.6" rx="8.56" ry="10.12"/><ellipse class="cls-1" cx="112.29" cy="150.5" rx="3.27" ry="4.77"/><polygon class="cls-1" points="124.84 148.81 112.97 135.55 98.85 148.89 124.84 148.81"/><ellipse class="cls-1" cx="104.41" cy="156.57" rx="8.56" ry="10.12"/><ellipse class="cls-1" cx="119.35" cy="156.57" rx="8.56" ry="10.12"/><ellipse class="cls-1" cx="40.68" cy="101.65" rx="3.27" ry="4.77"/><polygon class="cls-1" points="28.14 103.34 40 116.59 54.12 103.26 28.14 103.34"/><ellipse class="cls-1" cx="48.57" cy="95.57" rx="8.56" ry="10.12"/><ellipse class="cls-1" cx="33.62" cy="95.57" rx="8.56" ry="10.12"/><ellipse class="cls-1" cx="111.88" cy="100.76" rx="3.27" ry="4.77"/><polygon class="cls-1" points="99.34 102.45 111.2 115.7 125.32 102.37 99.34 102.45"/><ellipse class="cls-1" cx="119.77" cy="94.68" rx="8.56" ry="10.12"/><ellipse class="cls-1" cx="104.82" cy="94.68" rx="8.56" ry="10.12"/><ellipse class="cls-1" cx="75.94" cy="72.8" rx="3.27" ry="4.77"/><polygon class="cls-1" points="63.4 74.5 75.27 87.75 89.39 74.42 63.4 74.5"/><ellipse class="cls-1" cx="83.83" cy="66.73" rx="8.56" ry="10.12"/><ellipse class="cls-1" cx="68.88" cy="66.73" rx="8.56" ry="10.12"/></g></svg>