<svg xmlns="http://www.w3.org/2000/svg" viewBox="0 0 150 200"><title>cards</title><g id="spade"><ellipse cx="40.18" cy="37.86" rx="3" ry="4.38" transform="translate(-0.31 0.34) rotate(-0.48)"/><polygon points="51.66 36.21 40.69 24.16 27.85 36.48 51.66 36.21"/><ellipse cx="33" cy="43.48" rx="7.85" ry="9.27" transform="translate(-0.36 0.28) rotate(-0.48)"/><ellipse cx="46.7" cy="43.37" rx="7.85" ry="9.27" transform="translate(-0.36 0.39) rotate(-0.48)"/><path d="M41.25,50s.27,8.32,3.35,9.38l-9.38.07s3.56-2.08,3.33-9.43S41.25,50,41.25,50Z"/><ellipse cx="114.67" cy="161.63" rx="3" ry="4.38" transform="translate(-1.34 0.96) rotate(-0.48)"/><polygon points="103.19 163.28 114.16 175.33 127 163 103.19 163.28"/><ellipse cx="121.85" cy="156" rx="7.85" ry="9.27" transform="translate(-1.29 1.02) rotate(-0.48)"/><ellipse cx="108.15" cy="156.12" rx="7.85" ry="9.27" transform="translate(-1.29 0.9) rotate(-0.48)"/><path d="M113.6,149.46s-.27-8.33-3.35-9.38l9.37-.08s-3.56,2.09-3.32,9.44S113.6,149.46,113.6,149.46Z"/></g></svg>