<svg xmlns="http://www.w3.org/2000/svg" viewBox="0 0 150 200"><title>cards</title><g id="club"><circle cx="29.07" cy="50.41" r="8.63"/><circle cx="37.7" cy="37.52" r="8.63"/><circle cx="46.33" cy="50.41" r="8.63"/><path d="M31.63,64.3S37,60.51,36.24,45.16h3.08s.51,18.63,4.44,19.14Z"/><circle cx="119.73" cy="151.48" r="8.63"/><circle cx="111.1" cy="164.37" r="8.63"/><circle cx="102.47" cy="151.48" r="8.63"/><path d="M117.17,137.6s-5.34,3.78-4.62,19.13h-3.07S109,138.11,105,137.6Z"/><circle cx="100.67" cy="50.36" r="8.63"/><circle cx="109.3" cy="37.47" r="8.63"/><circle cx="117.92" cy="50.36" r="8.63"/><path d="M103.23,64.25s5.33-3.79,4.61-19.14h3.08s.51,18.62,4.44,19.14Z"/><circle cx="47.33" cy="151.83" r="8.63"/><circle cx="38.7" cy="164.72" r="8.63"/><circle cx="30.07" cy="151.83" r="8.63"/><path d="M44.76,137.94s-5.33,3.79-4.61,19.14H37.07s-.51-18.62-4.44-19.14Z"/><circle cx="29.07" cy="103.82" r="8.63"/><circle cx="37.7" cy="90.93" r="8.63"/><circle cx="46.33" cy="103.82" r="8.63"/><path d="M31.63,117.7s5.34-3.78,4.61-19.13h3.08s.51,18.62,4.44,19.13Z"/><circle cx="100.67" cy="103.24" r="8.63"/><circle cx="109.3" cy="90.36" r="8.63"/><circle cx="117.92" cy="103.24" r="8.63"/><path d="M103.23,117.13s5.33-3.78,4.61-19.13h3.08s.51,18.62,4.44,19.13Z"/></g></svg>