<svg xmlns="http://www.w3.org/2000/svg" viewBox="0 0 150 200"><defs><style>.cls-1{font-size:100px;font-family:TimesNewRomanPS-BoldMT, Times New Roman;font-weight:700;}</style></defs><title>cards</title><g id="heart"><text class="cls-1" transform="translate(35.25 132.41)">K</text></g><g id="spade"><ellipse cx="27.04" cy="21.95" rx="2.07" ry="3.02" transform="translate(-0.18 0.23) rotate(-0.48)"/><polygon points="34.96 20.81 27.39 12.5 18.53 21 34.96 20.81"/><ellipse cx="22.09" cy="25.83" rx="5.41" ry="6.4" transform="translate(-0.21 0.18) rotate(-0.48)"/><ellipse cx="31.54" cy="25.75" rx="5.41" ry="6.4" transform="translate(-0.21 0.26) rotate(-0.48)"/><path d="M27.78,30.35s.18,5.74,2.31,6.47l-6.47,0s2.46-1.44,2.3-6.51S27.78,30.35,27.78,30.35Z"/><ellipse cx="129.68" cy="176.11" rx="2.07" ry="3.02" transform="translate(-1.46 1.08) rotate(-0.48)"/><polygon points="121.76 177.25 129.33 185.56 138.18 177.06 121.76 177.25"/><ellipse cx="134.63" cy="172.23" rx="5.41" ry="6.4" transform="translate(-1.43 1.12) rotate(-0.48)"/><ellipse cx="125.18" cy="172.3" rx="5.41" ry="6.4" transform="translate(-1.43 1.05) rotate(-0.48)"/><path d="M128.94,167.71s-.19-5.74-2.31-6.47l6.47-.05s-2.46,1.44-2.3,6.51S128.94,167.71,128.94,167.71Z"/></g></svg>