<svg xmlns="http://www.w3.org/2000/svg" viewBox="0 0 150 200"><title>cards</title><g id="spade"><ellipse cx="39.16" cy="40.1" rx="3" ry="4.38" transform="translate(-0.33 0.33) rotate(-0.48)"/><polygon points="50.64 38.45 39.67 26.4 26.83 38.73 50.64 38.45"/><ellipse cx="31.98" cy="45.73" rx="7.85" ry="9.27" transform="translate(-0.38 0.27) rotate(-0.48)"/><ellipse cx="45.68" cy="45.62" rx="7.85" ry="9.27" transform="translate(-0.38 0.38) rotate(-0.48)"/><path d="M40.23,52.27s.27,8.33,3.35,9.38l-9.37.08s3.56-2.09,3.32-9.44S40.23,52.27,40.23,52.27Z"/><ellipse cx="38.31" cy="161.28" rx="3" ry="4.38" transform="translate(-1.34 0.32) rotate(-0.48)"/><polygon points="26.83 162.93 37.81 174.98 50.64 162.66 26.83 162.93"/><ellipse cx="45.49" cy="155.65" rx="7.85" ry="9.27" transform="translate(-1.29 0.38) rotate(-0.48)"/><ellipse cx="31.8" cy="155.77" rx="7.85" ry="9.27" transform="translate(-1.29 0.27) rotate(-0.48)"/><path d="M37.24,149.11s-.27-8.33-3.34-9.38l9.37-.08s-3.56,2.09-3.33,9.44S37.24,149.11,37.24,149.11Z"/><ellipse cx="115.17" cy="41.09" rx="3" ry="4.38" transform="translate(-0.34 0.96) rotate(-0.48)"/><polygon points="126.65 39.44 115.67 27.39 102.84 39.72 126.65 39.44"/><ellipse cx="107.99" cy="46.72" rx="7.85" ry="9.27" transform="translate(-0.38 0.9) rotate(-0.48)"/><ellipse cx="121.68" cy="46.6" rx="7.85" ry="9.27" transform="translate(-0.38 1.01) rotate(-0.48)"/><path d="M116.24,53.26s.27,8.33,3.35,9.38l-9.38.08s3.56-2.09,3.33-9.44S116.24,53.26,116.24,53.26Z"/><ellipse cx="114.41" cy="159.3" rx="3" ry="4.38" transform="translate(-1.32 0.96) rotate(-0.48)"/><polygon points="102.93 160.94 113.91 173 126.74 160.67 102.93 160.94"/><ellipse cx="121.59" cy="153.67" rx="7.85" ry="9.27" transform="translate(-1.27 1.02) rotate(-0.48)"/><ellipse cx="107.9" cy="153.78" rx="7.85" ry="9.27" transform="translate(-1.27 0.9) rotate(-0.48)"/><path d="M113.34,147.13s-.27-8.33-3.35-9.38l9.38-.08s-3.56,2.09-3.33,9.43S113.34,147.13,113.34,147.13Z"/><ellipse cx="39.07" cy="96.23" rx="3" ry="4.38" transform="translate(-0.8 0.33) rotate(-0.48)"/><polygon points="50.55 94.58 39.58 82.53 26.74 94.85 50.55 94.58"/><ellipse cx="31.89" cy="101.86" rx="7.85" ry="9.27" transform="translate(-0.85 0.27) rotate(-0.48)"/><ellipse cx="45.59" cy="101.74" rx="7.85" ry="9.27" transform="translate(-0.84 0.38) rotate(-0.48)"/><path d="M40.14,108.4s.27,8.33,3.35,9.38l-9.37.08s3.55-2.09,3.32-9.44S40.14,108.4,40.14,108.4Z"/><ellipse cx="115.5" cy="96.23" rx="3" ry="4.38" transform="translate(-0.8 0.96) rotate(-0.48)"/><polygon points="126.98 94.58 116.01 82.53 103.17 94.85 126.98 94.58"/><ellipse cx="108.32" cy="101.86" rx="7.85" ry="9.27" transform="translate(-0.84 0.9) rotate(-0.48)"/><ellipse cx="122.02" cy="101.74" rx="7.85" ry="9.27" transform="translate(-0.84 1.02) rotate(-0.48)"/><path d="M116.57,108.4s.27,8.33,3.35,9.38l-9.37.08s3.56-2.09,3.32-9.44S116.57,108.4,116.57,108.4Z"/><ellipse cx="75.33" cy="67.53" rx="3" ry="4.38" transform="translate(-0.56 0.63) rotate(-0.48)"/><polygon points="86.81 65.88 75.84 53.83 63 66.15 86.81 65.88"/><ellipse cx="68.15" cy="73.15" rx="7.85" ry="9.27" transform="translate(-0.61 0.57) rotate(-0.48)"/><ellipse cx="81.85" cy="73.04" rx="7.85" ry="9.27" transform="translate(-0.6 0.68) rotate(-0.48)"/><path d="M76.4,79.7s.27,8.32,3.35,9.37l-9.37.08s3.56-2.08,3.32-9.43S76.4,79.7,76.4,79.7Z"/></g></svg>