<svg id="diamond" xmlns="http://www.w3.org/2000/svg" viewBox="0 0 150 200"><defs><style>.cls-1{fill:#ed2024;}</style></defs><title>cards</title><rect class="cls-1" x="31.51" y="28.21" width="23.27" height="23.27" transform="translate(40.81 -18.84) rotate(45)"/><rect class="cls-1" x="98.88" y="146.52" width="23.27" height="23.27" transform="translate(144.2 -31.82) rotate(45)"/><rect class="cls-1" x="98.88" y="29.15" width="23.27" height="23.27" transform="translate(61.21 -66.2) rotate(45)"/><rect class="cls-1" x="31.49" y="146.52" width="23.27" height="23.27" transform="translate(124.46 15.83) rotate(45)"/><rect class="cls-1" x="31.49" y="66.46" width="23.27" height="23.27" transform="translate(67.85 -7.62) rotate(45)"/><rect class="cls-1" x="99.13" y="66.46" width="23.27" height="23.27" transform="translate(87.66 -55.45) rotate(45)"/><rect class="cls-1" x="98.88" y="106.49" width="23.27" height="23.27" transform="translate(115.9 -43.55) rotate(45)"/><rect class="cls-1" x="31.51" y="106.49" width="23.27" height="23.27" transform="translate(96.16 4.09) rotate(45)"/><rect class="cls-1" x="65.19" y="47.43" width="23.27" height="23.27" transform="translate(64.27 -37.03) rotate(45)"/><rect class="cls-1" x="65.19" y="126.16" width="23.27" height="23.27" transform="translate(119.94 -13.97) rotate(45)"/></svg>