<svg xmlns="http://www.w3.org/2000/svg" viewBox="0 0 150 200"><title>cards</title><g id="spade"><ellipse cx="39.06" cy="38.55" rx="3" ry="4.38" transform="translate(-0.32 0.33) rotate(-0.48)"/><polygon points="50.54 36.9 39.56 24.85 26.73 37.18 50.54 36.9"/><ellipse cx="31.87" cy="44.18" rx="7.85" ry="9.27" transform="translate(-0.37 0.27) rotate(-0.48)"/><ellipse cx="45.57" cy="44.07" rx="7.85" ry="9.27" transform="translate(-0.36 0.38) rotate(-0.48)"/><path d="M40.13,50.72s.27,8.33,3.34,9.38l-9.37.08s3.56-2.09,3.33-9.44S40.13,50.72,40.13,50.72Z"/><ellipse cx="38.36" cy="158.73" rx="3" ry="4.38" transform="translate(-1.32 0.32) rotate(-0.48)"/><polygon points="26.88 160.38 37.86 172.43 50.69 160.11 26.88 160.38"/><ellipse cx="45.54" cy="153.1" rx="7.85" ry="9.27" transform="translate(-1.27 0.38) rotate(-0.48)"/><ellipse cx="31.85" cy="153.22" rx="7.85" ry="9.27" transform="translate(-1.27 0.27) rotate(-0.48)"/><path d="M37.29,146.56s-.27-8.32-3.35-9.38l9.38-.07s-3.56,2.08-3.33,9.43S37.29,146.56,37.29,146.56Z"/><ellipse cx="115.06" cy="39.54" rx="3" ry="4.38" transform="translate(-0.32 0.96) rotate(-0.48)"/><polygon points="126.54 37.89 115.57 25.84 102.73 38.16 126.54 37.89"/><ellipse cx="107.88" cy="45.17" rx="7.85" ry="9.27" transform="translate(-0.37 0.9) rotate(-0.48)"/><ellipse cx="121.58" cy="45.05" rx="7.85" ry="9.27" transform="translate(-0.37 1.01) rotate(-0.48)"/><path d="M116.13,51.71s.27,8.33,3.35,9.38l-9.37.08s3.56-2.09,3.32-9.44S116.13,51.71,116.13,51.71Z"/><ellipse cx="115.69" cy="158.77" rx="3" ry="4.38" transform="translate(-1.32 0.97) rotate(-0.48)"/><polygon points="104.21 160.42 115.18 172.47 128.02 160.14 104.21 160.42"/><ellipse cx="122.87" cy="153.14" rx="7.85" ry="9.27" transform="translate(-1.27 1.03) rotate(-0.48)"/><ellipse cx="109.17" cy="153.25" rx="7.85" ry="9.27" transform="translate(-1.27 0.91) rotate(-0.48)"/><path d="M114.62,146.6s-.27-8.33-3.35-9.38l9.37-.08s-3.56,2.09-3.32,9.44S114.62,146.6,114.62,146.6Z"/><ellipse cx="38.97" cy="94.68" rx="3" ry="4.38" transform="translate(-0.79 0.33) rotate(-0.48)"/><polygon points="50.45 93.03 39.47 80.98 26.63 93.3 50.45 93.03"/><ellipse cx="31.78" cy="100.31" rx="7.85" ry="9.27" transform="translate(-0.83 0.27) rotate(-0.48)"/><ellipse cx="45.48" cy="100.19" rx="7.85" ry="9.27" transform="translate(-0.83 0.38) rotate(-0.48)"/><path d="M40,106.85s.27,8.33,3.35,9.38l-9.37.08s3.56-2.09,3.33-9.44S40,106.85,40,106.85Z"/><ellipse cx="115.4" cy="94.68" rx="3" ry="4.38" transform="translate(-0.78 0.96) rotate(-0.48)"/><polygon points="126.88 93.03 115.9 80.98 103.06 93.3 126.88 93.03"/><ellipse cx="108.21" cy="100.31" rx="7.85" ry="9.27" transform="translate(-0.83 0.9) rotate(-0.48)"/><ellipse cx="121.91" cy="100.19" rx="7.85" ry="9.27" transform="translate(-0.83 1.02) rotate(-0.48)"/><path d="M116.47,106.85s.27,8.33,3.34,9.38l-9.37.08s3.56-2.09,3.33-9.44S116.47,106.85,116.47,106.85Z"/></g></svg>