<svg xmlns="http://www.w3.org/2000/svg" viewBox="0 0 150 200"><defs><style>.cls-1{fill:#ed2024;}</style></defs><title>cards</title><g id="heart"><ellipse class="cls-1" cx="41.93" cy="45.57" rx="3.27" ry="4.77"/><polygon class="cls-1" points="29.39 47.26 41.26 60.52 55.37 47.18 29.39 47.26"/><ellipse class="cls-1" cx="49.82" cy="39.49" rx="8.56" ry="10.12"/><ellipse class="cls-1" cx="34.87" cy="39.49" rx="8.56" ry="10.12"/><ellipse class="cls-1" cx="110.95" cy="44.65" rx="3.27" ry="4.77"/><polygon class="cls-1" points="98.41 46.34 110.28 59.59 124.39 46.26 98.41 46.34"/><ellipse class="cls-1" cx="118.84" cy="38.57" rx="8.56" ry="10.12"/><ellipse class="cls-1" cx="103.89" cy="38.57" rx="8.56" ry="10.12"/><ellipse class="cls-1" cx="39.4" cy="159.31" rx="3.27" ry="4.77"/><polygon class="cls-1" points="51.94 157.62 40.08 144.37 25.96 157.7 51.94 157.62"/><ellipse class="cls-1" cx="31.51" cy="165.39" rx="8.56" ry="10.12"/><ellipse class="cls-1" cx="46.46" cy="165.39" rx="8.56" ry="10.12"/><ellipse class="cls-1" cx="111.43" cy="160.29" rx="3.27" ry="4.77"/><polygon class="cls-1" points="123.97 158.6 112.1 145.35 97.99 158.68 123.97 158.6"/><ellipse class="cls-1" cx="103.54" cy="166.37" rx="8.56" ry="10.12"/><ellipse class="cls-1" cx="118.49" cy="166.37" rx="8.56" ry="10.12"/><ellipse class="cls-1" cx="40.69" cy="84.25" rx="3.27" ry="4.77"/><polygon class="cls-1" points="28.15 85.95 40.01 99.2 54.13 85.87 28.15 85.95"/><ellipse class="cls-1" cx="48.58" cy="78.18" rx="8.56" ry="10.12"/><ellipse class="cls-1" cx="33.63" cy="78.18" rx="8.56" ry="10.12"/><ellipse class="cls-1" cx="112.72" cy="84.88" rx="3.27" ry="4.77"/><polygon class="cls-1" points="100.17 86.57 112.04 99.82 126.16 86.49 100.17 86.57"/><ellipse class="cls-1" cx="120.6" cy="78.8" rx="8.56" ry="10.12"/><ellipse class="cls-1" cx="105.66" cy="78.8" rx="8.56" ry="10.12"/><ellipse class="cls-1" cx="74.58" cy="104.8" rx="3.27" ry="4.77"/><polygon class="cls-1" points="62.04 106.49 73.91 119.74 88.03 106.41 62.04 106.49"/><ellipse class="cls-1" cx="82.47" cy="98.72" rx="8.56" ry="10.12"/><ellipse class="cls-1" cx="67.53" cy="98.72" rx="8.56" ry="10.12"/><ellipse class="cls-1" cx="39.75" cy="121.53" rx="3.27" ry="4.77"/><polygon class="cls-1" points="52.3 119.83 40.43 106.58 26.31 119.91 52.3 119.83"/><ellipse class="cls-1" cx="31.87" cy="127.6" rx="8.56" ry="10.12"/><ellipse class="cls-1" cx="46.81" cy="127.6" rx="8.56" ry="10.12"/><ellipse class="cls-1" cx="111.78" cy="122.5" rx="3.27" ry="4.77"/><polygon class="cls-1" points="124.32 120.81 112.46 107.56 98.34 120.89 124.32 120.81"/><ellipse class="cls-1" cx="103.89" cy="128.58" rx="8.56" ry="10.12"/><ellipse class="cls-1" cx="118.84" cy="128.58" rx="8.56" ry="10.12"/></g></svg>