<svg xmlns="http://www.w3.org/2000/svg" viewBox="0 0 150 200"><defs><style>.cls-1{fill:#ed2024;}</style></defs><title>cards</title><g id="heart"><ellipse class="cls-1" cx="38.38" cy="51.09" rx="3.27" ry="4.77"/><polygon class="cls-1" points="25.84 52.78 37.71 66.03 51.83 52.7 25.84 52.78"/><ellipse class="cls-1" cx="46.27" cy="45.01" rx="8.56" ry="10.12"/><ellipse class="cls-1" cx="31.33" cy="45.01" rx="8.56" ry="10.12"/><ellipse class="cls-1" cx="111.76" cy="50.69" rx="3.27" ry="4.77"/><polygon class="cls-1" points="99.22 52.38 111.09 65.63 125.21 52.3 99.22 52.38"/><ellipse class="cls-1" cx="119.65" cy="44.61" rx="8.56" ry="10.12"/><ellipse class="cls-1" cx="104.7" cy="44.61" rx="8.56" ry="10.12"/><ellipse class="cls-1" cx="41.91" cy="149.99" rx="3.27" ry="4.77"/><polygon class="cls-1" points="54.45 148.3 42.59 135.05 28.47 148.38 54.45 148.3"/><ellipse class="cls-1" cx="34.03" cy="156.07" rx="8.56" ry="10.12"/><ellipse class="cls-1" cx="48.97" cy="156.07" rx="8.56" ry="10.12"/><ellipse class="cls-1" cx="113.01" cy="149.37" rx="3.27" ry="4.77"/><polygon class="cls-1" points="125.55 147.68 113.68 134.43 99.56 147.76 125.55 147.68"/><ellipse class="cls-1" cx="105.12" cy="155.45" rx="8.56" ry="10.12"/><ellipse class="cls-1" cx="120.07" cy="155.45" rx="8.56" ry="10.12"/></g></svg>