<svg xmlns="http://www.w3.org/2000/svg" viewBox="0 0 150 200"><title>cards</title><g id="club"><circle cx="31.67" cy="38.92" r="8.63"/><circle cx="40.29" cy="26.03" r="8.63"/><circle cx="48.92" cy="38.92" r="8.63"/><path d="M34.23,52.81S39.56,49,38.84,33.67h3.08s.51,18.62,4.44,19.14Z"/><circle cx="121.33" cy="156.99" r="8.63"/><circle cx="112.7" cy="169.88" r="8.63"/><circle cx="104.07" cy="156.99" r="8.63"/><path d="M118.76,143.1s-5.33,3.79-4.61,19.14h-3.07s-.52-18.63-4.45-19.14Z"/><circle cx="103.26" cy="38.86" r="8.63"/><circle cx="111.89" cy="25.97" r="8.63"/><circle cx="120.52" cy="38.86" r="8.63"/><path d="M105.83,52.75s5.33-3.79,4.61-19.14h3.08S114,52.24,118,52.75Z"/><circle cx="49.92" cy="159.34" r="8.63"/><circle cx="41.29" cy="172.23" r="8.63"/><circle cx="32.67" cy="159.34" r="8.63"/><path d="M47.36,145.45s-5.33,3.78-4.61,19.13H39.67s-.51-18.62-4.44-19.13Z"/><circle cx="31.67" cy="82.32" r="8.63"/><circle cx="40.29" cy="69.43" r="8.63"/><circle cx="48.92" cy="82.32" r="8.63"/><path d="M34.23,96.21s5.33-3.79,4.61-19.14h3.08s.51,18.62,4.44,19.14Z"/><circle cx="103.26" cy="81.75" r="8.63"/><circle cx="111.89" cy="68.86" r="8.63"/><circle cx="120.52" cy="81.75" r="8.63"/><path d="M105.83,95.64s5.33-3.79,4.61-19.14h3.08S114,95.12,118,95.64Z"/><circle cx="67.47" cy="62.51" r="8.63"/><circle cx="76.09" cy="49.62" r="8.63"/><circle cx="84.72" cy="62.51" r="8.63"/><path d="M70,76.4s5.33-3.79,4.61-19.14h3.08s.51,18.63,4.44,19.14Z"/><circle cx="48.92" cy="117.51" r="8.63"/><circle cx="40.29" cy="130.4" r="8.63"/><circle cx="31.67" cy="117.51" r="8.63"/><path d="M46.36,103.62s-5.33,3.79-4.61,19.14H38.67s-.51-18.62-4.44-19.14Z"/><circle cx="120.67" cy="117.96" r="8.63"/><circle cx="112.04" cy="130.85" r="8.63"/><circle cx="103.41" cy="117.96" r="8.63"/><path d="M118.11,104.07s-5.34,3.79-4.62,19.14h-3.07s-.51-18.63-4.44-19.14Z"/><circle cx="83.63" cy="135.66" r="8.63"/><circle cx="75" cy="148.55" r="8.63"/><circle cx="66.37" cy="135.66" r="8.63"/><path d="M81.07,121.77s-5.34,3.79-4.62,19.14H73.38s-.52-18.62-4.45-19.14Z"/></g></svg>