<svg xmlns="http://www.w3.org/2000/svg" viewBox="0 0 150 200"><defs><style>.cls-1{fill:#ed2024;}</style></defs><title>cards</title><g id="heart"><ellipse class="cls-1" cx="40.87" cy="43.23" rx="3.27" ry="4.77"/><polygon class="cls-1" points="28.33 44.93 40.2 58.18 54.31 44.85 28.33 44.93"/><ellipse class="cls-1" cx="48.76" cy="37.16" rx="8.56" ry="10.12"/><ellipse class="cls-1" cx="33.81" cy="37.16" rx="8.56" ry="10.12"/><ellipse class="cls-1" cx="109.89" cy="42.31" rx="3.27" ry="4.77"/><polygon class="cls-1" points="97.35 44.01 109.22 57.26 123.34 43.92 97.35 44.01"/><ellipse class="cls-1" cx="117.78" cy="36.24" rx="8.56" ry="10.12"/><ellipse class="cls-1" cx="102.84" cy="36.24" rx="8.56" ry="10.12"/><ellipse class="cls-1" cx="38.34" cy="156.98" rx="3.27" ry="4.77"/><polygon class="cls-1" points="50.88 155.29 39.02 142.03 24.9 155.37 50.88 155.29"/><ellipse class="cls-1" cx="30.45" cy="163.06" rx="8.56" ry="10.12"/><ellipse class="cls-1" cx="45.4" cy="163.06" rx="8.56" ry="10.12"/><ellipse class="cls-1" cx="110.37" cy="157.96" rx="3.27" ry="4.77"/><polygon class="cls-1" points="122.91 156.26 111.05 143.01 96.93 156.34 122.91 156.26"/><ellipse class="cls-1" cx="102.48" cy="164.03" rx="8.56" ry="10.12"/><ellipse class="cls-1" cx="117.43" cy="164.03" rx="8.56" ry="10.12"/><ellipse class="cls-1" cx="39.63" cy="81.92" rx="3.27" ry="4.77"/><polygon class="cls-1" points="27.09 83.61 38.95 96.86 53.07 83.53 27.09 83.61"/><ellipse class="cls-1" cx="47.52" cy="75.84" rx="8.56" ry="10.12"/><ellipse class="cls-1" cx="32.57" cy="75.84" rx="8.56" ry="10.12"/><ellipse class="cls-1" cx="111.66" cy="82.54" rx="3.27" ry="4.77"/><polygon class="cls-1" points="99.12 84.24 110.98 97.49 125.1 84.16 99.12 84.24"/><ellipse class="cls-1" cx="119.55" cy="76.47" rx="8.56" ry="10.12"/><ellipse class="cls-1" cx="104.6" cy="76.47" rx="8.56" ry="10.12"/><ellipse class="cls-1" cx="74.62" cy="65.29" rx="3.27" ry="4.77"/><polygon class="cls-1" points="62.08 66.98 73.94 80.23 88.06 66.9 62.08 66.98"/><ellipse class="cls-1" cx="82.5" cy="59.21" rx="8.56" ry="10.12"/><ellipse class="cls-1" cx="67.56" cy="59.21" rx="8.56" ry="10.12"/><ellipse class="cls-1" cx="38.7" cy="119.19" rx="3.27" ry="4.77"/><polygon class="cls-1" points="51.24 117.5 39.37 104.25 25.25 117.58 51.24 117.5"/><ellipse class="cls-1" cx="30.81" cy="125.27" rx="8.56" ry="10.12"/><ellipse class="cls-1" cx="45.75" cy="125.27" rx="8.56" ry="10.12"/><ellipse class="cls-1" cx="110.72" cy="120.17" rx="3.27" ry="4.77"/><polygon class="cls-1" points="123.27 118.47 111.4 105.22 97.28 118.55 123.27 118.47"/><ellipse class="cls-1" cx="102.84" cy="126.24" rx="8.56" ry="10.12"/><ellipse class="cls-1" cx="117.78" cy="126.24" rx="8.56" ry="10.12"/><ellipse class="cls-1" cx="74.53" cy="138.2" rx="3.27" ry="4.77"/><polygon class="cls-1" points="87.07 136.51 75.21 123.26 61.09 136.59 87.07 136.51"/><ellipse class="cls-1" cx="66.65" cy="144.28" rx="8.56" ry="10.12"/><ellipse class="cls-1" cx="81.59" cy="144.28" rx="8.56" ry="10.12"/></g></svg>