<svg xmlns="http://www.w3.org/2000/svg" viewBox="0 0 150 200"><defs><style>.cls-1{fill:#231f20;}.cls-1,.cls-2{stroke:#ed2024;stroke-miterlimit:10;}.cls-2{fill:#ed2024;}</style></defs><title>cardback</title><g id="heart"><rect class="cls-1" width="150" height="200"/><path class="cls-2" d="M.61,0C.52,0,.5.12.58.14,6.66,1.6,57.85,15,47.5,46c-11,33,12,54,30,50,21.77-4.84,18,11,10.5,19s-23,26.5,4.5,30.5,44,5,43.5,16-10.37,30.25-10.5,30.5h0c-.13.14-7.47,8.51-3.79,8,18-2.52,27.27-.27,28.21,0a.07.07,0,0,0,.08-.07V.07a.07.07,0,0,0-.07-.07Z"/></g></svg>