<svg xmlns="http://www.w3.org/2000/svg" viewBox="0 0 150 200"><title>cards</title><g id="spade"><ellipse cx="39.34" cy="37.65" rx="3" ry="4.38" transform="translate(-0.31 0.33) rotate(-0.48)"/><polygon points="50.82 36 39.84 23.95 27.01 36.27 50.82 36"/><ellipse cx="32.16" cy="43.28" rx="7.85" ry="9.27" transform="translate(-0.36 0.27) rotate(-0.48)"/><ellipse cx="45.85" cy="43.16" rx="7.85" ry="9.27" transform="translate(-0.36 0.38) rotate(-0.48)"/><path d="M40.41,49.82s.27,8.33,3.35,9.38l-9.38.08s3.56-2.09,3.33-9.44S40.41,49.82,40.41,49.82Z"/><ellipse cx="38.42" cy="170.8" rx="3" ry="4.38" transform="translate(-1.42 0.33) rotate(-0.48)"/><polygon points="26.94 172.45 37.92 184.5 50.76 172.18 26.94 172.45"/><ellipse cx="45.61" cy="165.17" rx="7.85" ry="9.27" transform="translate(-1.37 0.38) rotate(-0.48)"/><ellipse cx="31.91" cy="165.29" rx="7.85" ry="9.27" transform="translate(-1.37 0.27) rotate(-0.48)"/><path d="M37.35,158.63s-.26-8.33-3.34-9.38l9.37-.08s-3.56,2.09-3.33,9.44S37.35,158.63,37.35,158.63Z"/><ellipse cx="117.35" cy="37.61" rx="3" ry="4.38" transform="translate(-0.31 0.98) rotate(-0.48)"/><polygon points="128.83 35.96 117.85 23.91 105.02 36.23 128.83 35.96"/><ellipse cx="110.17" cy="43.24" rx="7.85" ry="9.27" transform="translate(-0.36 0.92) rotate(-0.48)"/><ellipse cx="123.86" cy="43.12" rx="7.85" ry="9.27" transform="translate(-0.35 1.03) rotate(-0.48)"/><path d="M118.42,49.78s.27,8.33,3.34,9.38l-9.37.08s3.56-2.09,3.33-9.44S118.42,49.78,118.42,49.78Z"/><ellipse cx="117.16" cy="169.76" rx="3" ry="4.38" transform="translate(-1.41 0.98) rotate(-0.48)"/><polygon points="105.68 171.41 116.66 183.46 129.49 171.14 105.68 171.41"/><ellipse cx="124.34" cy="164.13" rx="7.85" ry="9.27" transform="translate(-1.36 1.04) rotate(-0.48)"/><ellipse cx="110.65" cy="164.25" rx="7.85" ry="9.27" transform="translate(-1.36 0.93) rotate(-0.48)"/><path d="M116.09,157.59s-.27-8.32-3.34-9.38l9.37-.07s-3.56,2.08-3.33,9.43S116.09,157.59,116.09,157.59Z"/><ellipse cx="39.25" cy="79.46" rx="3" ry="4.38" transform="translate(-0.66 0.33) rotate(-0.48)"/><polygon points="50.73 77.82 39.75 65.76 26.92 78.09 50.73 77.82"/><ellipse cx="32.07" cy="85.09" rx="7.85" ry="9.27" transform="translate(-0.71 0.27) rotate(-0.48)"/><ellipse cx="45.76" cy="84.98" rx="7.85" ry="9.27" transform="translate(-0.7 0.38) rotate(-0.48)"/><path d="M40.32,91.63s.27,8.33,3.34,9.38l-9.37.08s3.56-2.09,3.33-9.43S40.32,91.63,40.32,91.63Z"/><ellipse cx="117.04" cy="77.71" rx="3" ry="4.38" transform="translate(-0.64 0.98) rotate(-0.48)"/><polygon points="128.52 76.06 117.54 64.01 104.71 76.33 128.52 76.06"/><ellipse cx="109.86" cy="83.34" rx="7.85" ry="9.27" transform="translate(-0.69 0.92) rotate(-0.48)"/><ellipse cx="123.55" cy="83.22" rx="7.85" ry="9.27" transform="translate(-0.69 1.03) rotate(-0.48)"/><path d="M118.11,89.88s.27,8.32,3.35,9.38l-9.38.08s3.56-2.09,3.33-9.44S118.11,89.88,118.11,89.88Z"/><ellipse cx="78.51" cy="66.21" rx="3" ry="4.38" transform="translate(-0.55 0.65) rotate(-0.48)"/><polygon points="89.99 64.56 79.01 52.51 66.18 64.83 89.99 64.56"/><ellipse cx="71.33" cy="71.84" rx="7.85" ry="9.27" transform="translate(-0.59 0.6) rotate(-0.48)"/><ellipse cx="85.02" cy="71.72" rx="7.85" ry="9.27" transform="translate(-0.59 0.71) rotate(-0.48)"/><path d="M79.58,78.38s.27,8.32,3.34,9.38l-9.37.07s3.56-2.08,3.33-9.43S79.58,78.38,79.58,78.38Z"/><ellipse cx="116.59" cy="128.18" rx="3" ry="4.38" transform="translate(-1.06 0.97) rotate(-0.48)"/><polygon points="105.11 129.83 116.08 141.88 128.92 129.55 105.11 129.83"/><ellipse cx="123.77" cy="122.55" rx="7.85" ry="9.27" transform="translate(-1.01 1.03) rotate(-0.48)"/><ellipse cx="110.07" cy="122.66" rx="7.85" ry="9.27" transform="translate(-1.02 0.92) rotate(-0.48)"/><path d="M115.52,116s-.27-8.33-3.35-9.38l9.37-.08s-3.55,2.09-3.32,9.44S115.52,116,115.52,116Z"/><ellipse cx="38.49" cy="129.44" rx="3" ry="4.38" transform="translate(-1.07 0.32) rotate(-0.48)"/><polygon points="27.01 131.08 37.98 143.14 50.82 130.81 27.01 131.08"/><ellipse cx="45.67" cy="123.81" rx="7.85" ry="9.27" transform="translate(-1.03 0.38) rotate(-0.48)"/><ellipse cx="31.97" cy="123.92" rx="7.85" ry="9.27" transform="translate(-1.03 0.27) rotate(-0.48)"/><path d="M37.42,117.27s-.27-8.33-3.35-9.38l9.37-.08s-3.55,2.09-3.32,9.43S37.42,117.27,37.42,117.27Z"/><ellipse cx="76.79" cy="145.34" rx="3" ry="4.38" transform="translate(-1.21 0.64) rotate(-0.48)"/><polygon points="65.31 146.99 76.28 159.04 89.12 146.71 65.31 146.99"/><ellipse cx="83.97" cy="139.71" rx="7.85" ry="9.27" transform="translate(-1.16 0.7) rotate(-0.48)"/><ellipse cx="70.27" cy="139.82" rx="7.85" ry="9.27" transform="translate(-1.16 0.59) rotate(-0.48)"/><path d="M75.72,133.17s-.27-8.33-3.35-9.38l9.37-.08s-3.56,2.09-3.32,9.44S75.72,133.17,75.72,133.17Z"/></g></svg>