<svg xmlns="http://www.w3.org/2000/svg" viewBox="0 0 150 200"><title>cards</title><g id="spade"><ellipse cx="38.56" cy="39.66" rx="3" ry="4.38" transform="translate(-0.33 0.32) rotate(-0.48)"/><polygon points="50.04 38.01 39.07 25.95 26.23 38.28 50.04 38.01"/><ellipse cx="31.38" cy="45.28" rx="7.85" ry="9.27" transform="translate(-0.38 0.26) rotate(-0.48)"/><ellipse cx="45.08" cy="45.17" rx="7.85" ry="9.27" transform="translate(-0.37 0.38) rotate(-0.48)"/><path d="M39.63,51.83S39.9,60.15,43,61.2l-9.37.08s3.56-2.09,3.32-9.43S39.63,51.83,39.63,51.83Z"/><ellipse cx="41.35" cy="160.06" rx="3" ry="4.38" transform="translate(-1.33 0.35) rotate(-0.48)"/><polygon points="29.87 161.71 40.85 173.76 53.68 161.44 29.87 161.71"/><ellipse cx="48.53" cy="154.44" rx="7.85" ry="9.27" transform="translate(-1.28 0.41) rotate(-0.48)"/><ellipse cx="34.84" cy="154.55" rx="7.85" ry="9.27" transform="translate(-1.28 0.29) rotate(-0.48)"/><path d="M40.28,147.89s-.27-8.32-3.35-9.37l9.38-.08s-3.56,2.09-3.33,9.43S40.28,147.89,40.28,147.89Z"/><ellipse cx="113.13" cy="40.64" rx="3" ry="4.38" transform="translate(-0.33 0.94) rotate(-0.48)"/><polygon points="124.61 39 113.64 26.94 100.8 39.27 124.61 39"/><ellipse cx="105.95" cy="46.27" rx="7.85" ry="9.27" transform="translate(-0.38 0.88) rotate(-0.48)"/><ellipse cx="119.64" cy="46.16" rx="7.85" ry="9.27" transform="translate(-0.38 1) rotate(-0.48)"/><path d="M114.2,52.81s.27,8.33,3.35,9.38l-9.38.08s3.56-2.09,3.33-9.43S114.2,52.81,114.2,52.81Z"/><ellipse cx="113.75" cy="159.87" rx="3" ry="4.38" transform="translate(-1.32 0.95) rotate(-0.48)"/><polygon points="102.27 161.52 113.25 173.57 126.09 161.25 102.27 161.52"/><ellipse cx="120.94" cy="154.24" rx="7.85" ry="9.27" transform="translate(-1.28 1.01) rotate(-0.48)"/><ellipse cx="107.24" cy="154.36" rx="7.85" ry="9.27" transform="translate(-1.28 0.9) rotate(-0.48)"/><path d="M112.69,147.7s-.27-8.32-3.35-9.38l9.37-.07s-3.56,2.08-3.33,9.43S112.69,147.7,112.69,147.7Z"/><ellipse cx="75.33" cy="93.13" rx="3" ry="4.38" transform="translate(-0.77 0.63) rotate(-0.48)"/><polygon points="86.81 91.48 75.84 79.43 63 91.75 86.81 91.48"/><ellipse cx="68.15" cy="98.76" rx="7.85" ry="9.27" transform="translate(-0.82 0.57) rotate(-0.48)"/><ellipse cx="81.85" cy="98.64" rx="7.85" ry="9.27" transform="translate(-0.82 0.68) rotate(-0.48)"/><path d="M76.4,105.3s.27,8.32,3.35,9.38l-9.37.07s3.56-2.08,3.32-9.43S76.4,105.3,76.4,105.3Z"/></g></svg>