<svg xmlns="http://www.w3.org/2000/svg" viewBox="0 0 150 200"><title>cards</title><g id="club"><circle cx="29.67" cy="37.1" r="8.63"/><circle cx="38.3" cy="24.21" r="8.63"/><circle cx="46.93" cy="37.1" r="8.63"/><path d="M32.23,51s5.34-3.78,4.62-19.13h3.07S40.43,50.47,44.36,51Z"/><circle cx="119.33" cy="155.17" r="8.63"/><circle cx="110.7" cy="168.06" r="8.63"/><circle cx="102.07" cy="155.17" r="8.63"/><path d="M116.77,141.28s-5.34,3.78-4.62,19.13h-3.07s-.51-18.62-4.44-19.13Z"/><circle cx="101.27" cy="37.04" r="8.63"/><circle cx="109.9" cy="24.15" r="8.63"/><circle cx="118.52" cy="37.04" r="8.63"/><path d="M103.83,50.93s5.33-3.79,4.61-19.14h3.08S112,50.42,116,50.93Z"/><circle cx="47.93" cy="157.51" r="8.63"/><circle cx="39.3" cy="170.4" r="8.63"/><circle cx="30.67" cy="157.51" r="8.63"/><path d="M45.36,143.63s-5.33,3.78-4.61,19.13H37.67s-.51-18.62-4.44-19.13Z"/><circle cx="29.67" cy="80.5" r="8.63"/><circle cx="38.3" cy="67.61" r="8.63"/><circle cx="46.93" cy="80.5" r="8.63"/><path d="M32.23,94.38s5.34-3.78,4.62-19.13h3.07s.51,18.62,4.44,19.13Z"/><circle cx="101.27" cy="79.93" r="8.63"/><circle cx="109.9" cy="67.04" r="8.63"/><circle cx="118.52" cy="79.93" r="8.63"/><path d="M103.83,93.81s5.33-3.78,4.61-19.13h3.08S112,93.3,116,93.81Z"/><circle cx="65.47" cy="60.69" r="8.63"/><circle cx="74.1" cy="47.8" r="8.63"/><circle cx="82.73" cy="60.69" r="8.63"/><path d="M68,74.58s5.34-3.79,4.61-19.14h3.08s.51,18.63,4.44,19.14Z"/><circle cx="46.93" cy="115.69" r="8.63"/><circle cx="38.3" cy="128.58" r="8.63"/><circle cx="29.67" cy="115.69" r="8.63"/><path d="M44.36,101.8s-5.33,3.79-4.61,19.14H36.67s-.51-18.62-4.44-19.14Z"/><circle cx="118.67" cy="116.14" r="8.63"/><circle cx="110.04" cy="129.03" r="8.63"/><circle cx="101.42" cy="116.14" r="8.63"/><path d="M116.11,102.25s-5.33,3.78-4.61,19.13h-3.08s-.51-18.62-4.44-19.13Z"/></g></svg>