<svg xmlns="http://www.w3.org/2000/svg" viewBox="0 0 150 200"><defs><style>.cls-1{fill:#ed2024;}</style></defs><title>cards</title><g id="heart"><ellipse class="cls-1" cx="41.44" cy="49.37" rx="3.27" ry="4.77"/><polygon class="cls-1" points="28.89 51.06 40.76 64.31 54.88 50.98 28.89 51.06"/><ellipse class="cls-1" cx="49.32" cy="43.29" rx="8.56" ry="10.12"/><ellipse class="cls-1" cx="34.38" cy="43.29" rx="8.56" ry="10.12"/><ellipse class="cls-1" cx="111.13" cy="49.72" rx="3.27" ry="4.77"/><polygon class="cls-1" points="98.59 51.41 110.46 64.67 124.58 51.33 98.59 51.41"/><ellipse class="cls-1" cx="119.02" cy="43.65" rx="8.56" ry="10.12"/><ellipse class="cls-1" cx="104.07" cy="43.65" rx="8.56" ry="10.12"/><ellipse class="cls-1" cx="40.76" cy="150.95" rx="3.27" ry="4.77"/><polygon class="cls-1" points="53.3 149.25 41.44 136 27.32 149.34 53.3 149.25"/><ellipse class="cls-1" cx="32.87" cy="157.02" rx="8.56" ry="10.12"/><ellipse class="cls-1" cx="47.82" cy="157.02" rx="8.56" ry="10.12"/><ellipse class="cls-1" cx="111.66" cy="150.71" rx="3.27" ry="4.77"/><polygon class="cls-1" points="124.2 149.01 112.33 135.76 98.22 149.09 124.2 149.01"/><ellipse class="cls-1" cx="103.77" cy="156.78" rx="8.56" ry="10.12"/><ellipse class="cls-1" cx="118.72" cy="156.78" rx="8.56" ry="10.12"/><ellipse class="cls-1" cx="41.02" cy="101.03" rx="3.27" ry="4.77"/><polygon class="cls-1" points="28.48 102.72 40.34 115.97 54.46 102.64 28.48 102.72"/><ellipse class="cls-1" cx="48.91" cy="94.95" rx="8.56" ry="10.12"/><ellipse class="cls-1" cx="33.96" cy="94.95" rx="8.56" ry="10.12"/><ellipse class="cls-1" cx="112.22" cy="100.13" rx="3.27" ry="4.77"/><polygon class="cls-1" points="99.68 101.83 111.55 115.08 125.67 101.75 99.68 101.83"/><ellipse class="cls-1" cx="120.11" cy="94.06" rx="8.56" ry="10.12"/><ellipse class="cls-1" cx="105.16" cy="94.06" rx="8.56" ry="10.12"/><ellipse class="cls-1" cx="76.28" cy="72.18" rx="3.27" ry="4.77"/><polygon class="cls-1" points="63.74 73.88 75.61 87.13 89.73 73.8 63.74 73.88"/><ellipse class="cls-1" cx="84.17" cy="66.11" rx="8.56" ry="10.12"/><ellipse class="cls-1" cx="69.23" cy="66.11" rx="8.56" ry="10.12"/><ellipse class="cls-1" cx="76.02" cy="122.64" rx="3.27" ry="4.77"/><polygon class="cls-1" points="88.56 120.94 76.7 107.69 62.58 121.02 88.56 120.94"/><ellipse class="cls-1" cx="68.14" cy="128.71" rx="8.56" ry="10.12"/><ellipse class="cls-1" cx="83.08" cy="128.71" rx="8.56" ry="10.12"/></g></svg>