<svg xmlns="http://www.w3.org/2000/svg" viewBox="0 0 150 200"><defs><style>.cls-1{font-size:100px;font-family:TimesNewRomanPS-BoldMT, Times New Roman;font-weight:700;}</style></defs><title>cards</title><g id="heart"><text class="cls-1" transform="translate(45.28 132.69)">J</text></g><g id="spade"><ellipse cx="22.5" cy="26.2" rx="2.07" ry="3.02" transform="translate(-0.22 0.19) rotate(-0.48)"/><polygon points="30.42 25.07 22.85 16.75 14 25.25 30.42 25.07"/><ellipse cx="17.55" cy="30.08" rx="5.41" ry="6.4" transform="translate(-0.25 0.15) rotate(-0.48)"/><ellipse cx="27" cy="30.01" rx="5.41" ry="6.4" transform="translate(-0.25 0.23) rotate(-0.48)"/><path d="M23.24,34.6s.19,5.74,2.31,6.47l-6.47,0s2.46-1.44,2.3-6.51S23.24,34.6,23.24,34.6Z"/><ellipse cx="125.14" cy="180.36" rx="2.07" ry="3.02" transform="translate(-1.49 1.05) rotate(-0.48)"/><polygon points="117.22 181.5 124.79 189.81 133.65 181.31 117.22 181.5"/><ellipse cx="130.09" cy="176.48" rx="5.41" ry="6.4" transform="translate(-1.46 1.09) rotate(-0.48)"/><ellipse cx="120.64" cy="176.56" rx="5.41" ry="6.4" transform="translate(-1.46 1.01) rotate(-0.48)"/><path d="M124.4,172s-.18-5.74-2.31-6.47l6.47-.05s-2.46,1.44-2.3,6.51S124.4,172,124.4,172Z"/></g></svg>