<svg xmlns="http://www.w3.org/2000/svg" viewBox="0 0 150 200"><defs><style>.cls-1{fill:#ed2024;}</style></defs><title>cards</title><g id="heart"><ellipse class="cls-1" cx="41.6" cy="51.71" rx="3.27" ry="4.77"/><polygon class="cls-1" points="29.06 53.41 40.92 66.66 55.04 53.33 29.06 53.41"/><ellipse class="cls-1" cx="49.49" cy="45.64" rx="8.56" ry="10.12"/><ellipse class="cls-1" cx="34.54" cy="45.64" rx="8.56" ry="10.12"/><ellipse class="cls-1" cx="76.68" cy="100.08" rx="3.27" ry="4.77"/><polygon class="cls-1" points="64.14 101.78 76 115.03 90.12 101.7 64.14 101.78"/><ellipse class="cls-1" cx="84.57" cy="94.01" rx="8.56" ry="10.12"/><ellipse class="cls-1" cx="69.62" cy="94.01" rx="8.56" ry="10.12"/><ellipse class="cls-1" cx="113.78" cy="146.43" rx="3.27" ry="4.77"/><polygon class="cls-1" points="126.32 144.74 114.46 131.49 100.34 144.82 126.32 144.74"/><ellipse class="cls-1" cx="105.89" cy="152.51" rx="8.56" ry="10.12"/><ellipse class="cls-1" cx="120.84" cy="152.51" rx="8.56" ry="10.12"/></g></svg>