<svg xmlns="http://www.w3.org/2000/svg" viewBox="0 0 150 200"><title>cards</title><g id="spade"><ellipse cx="37.26" cy="40.78" rx="3" ry="4.38" transform="translate(-0.34 0.31) rotate(-0.48)"/><polygon points="48.74 39.13 37.76 27.08 24.92 39.4 48.74 39.13"/><ellipse cx="30.07" cy="46.41" rx="7.85" ry="9.27" transform="translate(-0.38 0.25) rotate(-0.48)"/><ellipse cx="43.77" cy="46.29" rx="7.85" ry="9.27" transform="translate(-0.38 0.37) rotate(-0.48)"/><path d="M38.33,53s.26,8.32,3.34,9.38l-9.37.08s3.56-2.09,3.33-9.44S38.33,53,38.33,53Z"/><ellipse cx="36.4" cy="161.96" rx="3" ry="4.38" transform="translate(-1.34 0.31) rotate(-0.48)"/><polygon points="24.92 163.6 35.9 175.66 48.74 163.33 24.92 163.6"/><ellipse cx="43.59" cy="156.33" rx="7.85" ry="9.27" transform="translate(-1.3 0.37) rotate(-0.48)"/><ellipse cx="29.89" cy="156.44" rx="7.85" ry="9.27" transform="translate(-1.3 0.25) rotate(-0.48)"/><path d="M35.34,149.79s-.27-8.33-3.35-9.38l9.37-.08s-3.56,2.09-3.33,9.43S35.34,149.79,35.34,149.79Z"/><ellipse cx="113.26" cy="41.77" rx="3" ry="4.38" transform="translate(-0.34 0.94) rotate(-0.48)"/><polygon points="124.74 40.12 113.77 28.07 100.93 40.39 124.74 40.12"/><ellipse cx="106.08" cy="47.39" rx="7.85" ry="9.27" transform="translate(-0.39 0.88) rotate(-0.48)"/><ellipse cx="119.78" cy="47.28" rx="7.85" ry="9.27" transform="translate(-0.39 1) rotate(-0.48)"/><path d="M114.33,53.94s.27,8.32,3.35,9.38l-9.37.07s3.55-2.08,3.32-9.43S114.33,53.94,114.33,53.94Z"/><ellipse cx="112.5" cy="159.97" rx="3" ry="4.38" transform="translate(-1.33 0.94) rotate(-0.48)"/><polygon points="101.02 161.62 112 173.67 124.83 161.35 101.02 161.62"/><ellipse cx="119.68" cy="154.34" rx="7.85" ry="9.27" transform="translate(-1.28 1) rotate(-0.48)"/><ellipse cx="105.99" cy="154.46" rx="7.85" ry="9.27" transform="translate(-1.28 0.89) rotate(-0.48)"/><path d="M111.43,147.8s-.27-8.32-3.34-9.38l9.37-.07s-3.56,2.08-3.33,9.43S111.43,147.8,111.43,147.8Z"/><ellipse cx="37.16" cy="96.91" rx="3" ry="4.38" transform="translate(-0.8 0.31) rotate(-0.48)"/><polygon points="48.64 95.26 37.67 83.21 24.83 95.53 48.64 95.26"/><ellipse cx="29.98" cy="102.53" rx="7.85" ry="9.27" transform="translate(-0.85 0.25) rotate(-0.48)"/><ellipse cx="43.68" cy="102.42" rx="7.85" ry="9.27" transform="translate(-0.85 0.37) rotate(-0.48)"/><path d="M38.23,109.08s.27,8.32,3.35,9.38l-9.37.07s3.56-2.08,3.33-9.43S38.23,109.08,38.23,109.08Z"/><ellipse cx="113.6" cy="96.91" rx="3" ry="4.38" transform="translate(-0.8 0.95) rotate(-0.48)"/><polygon points="125.08 95.26 114.1 83.21 101.26 95.53 125.08 95.26"/><ellipse cx="106.41" cy="102.53" rx="7.85" ry="9.27" transform="translate(-0.85 0.89) rotate(-0.48)"/><ellipse cx="120.11" cy="102.42" rx="7.85" ry="9.27" transform="translate(-0.85 1) rotate(-0.48)"/><path d="M114.66,109.08s.27,8.32,3.35,9.38l-9.37.07s3.56-2.08,3.33-9.43S114.66,109.08,114.66,109.08Z"/><ellipse cx="73.43" cy="68.2" rx="3" ry="4.38" transform="translate(-0.56 0.61) rotate(-0.48)"/><polygon points="84.91 66.56 73.93 54.5 61.09 66.83 84.91 66.56"/><ellipse cx="66.24" cy="73.83" rx="7.85" ry="9.27" transform="translate(-0.61 0.55) rotate(-0.48)"/><ellipse cx="79.94" cy="73.72" rx="7.85" ry="9.27" transform="translate(-0.61 0.67) rotate(-0.48)"/><path d="M74.5,80.37s.26,8.33,3.34,9.38l-9.37.08S72,87.74,71.8,80.39,74.5,80.37,74.5,80.37Z"/><ellipse cx="73.09" cy="133.88" rx="3" ry="4.38" transform="translate(-1.11 0.61) rotate(-0.48)"/><polygon points="61.61 135.53 72.59 147.58 85.42 135.25 61.61 135.53"/><ellipse cx="80.27" cy="128.25" rx="7.85" ry="9.27" transform="translate(-1.06 0.67) rotate(-0.48)"/><ellipse cx="66.58" cy="128.36" rx="7.85" ry="9.27" transform="translate(-1.06 0.56) rotate(-0.48)"/><path d="M72,121.71s-.27-8.33-3.34-9.38l9.37-.08s-3.56,2.09-3.33,9.44S72,121.71,72,121.71Z"/></g></svg>