<svg xmlns="http://www.w3.org/2000/svg" viewBox="0 0 150 200"><defs><style>.cls-1{fill:#ed2024;}</style></defs><title>cards</title><g id="heart"><ellipse class="cls-1" cx="37.69" cy="50.06" rx="3.27" ry="4.77"/><polygon class="cls-1" points="25.15 51.76 37.01 65.01 51.13 51.68 25.15 51.76"/><ellipse class="cls-1" cx="45.58" cy="43.99" rx="8.56" ry="10.12"/><ellipse class="cls-1" cx="30.63" cy="43.99" rx="8.56" ry="10.12"/><ellipse class="cls-1" cx="111.9" cy="50.06" rx="3.27" ry="4.77"/><polygon class="cls-1" points="99.36 51.76 111.22 65.01 125.34 51.68 99.36 51.76"/><ellipse class="cls-1" cx="119.78" cy="43.99" rx="8.56" ry="10.12"/><ellipse class="cls-1" cx="104.84" cy="43.99" rx="8.56" ry="10.12"/><ellipse class="cls-1" cx="43.43" cy="151.51" rx="3.27" ry="4.77"/><polygon class="cls-1" points="55.97 149.82 44.11 136.57 29.99 149.9 55.97 149.82"/><ellipse class="cls-1" cx="35.54" cy="157.59" rx="8.56" ry="10.12"/><ellipse class="cls-1" cx="50.49" cy="157.59" rx="8.56" ry="10.12"/><ellipse class="cls-1" cx="114.08" cy="150.89" rx="3.27" ry="4.77"/><polygon class="cls-1" points="126.62 149.2 114.75 135.94 100.63 149.28 126.62 149.2"/><ellipse class="cls-1" cx="106.19" cy="156.97" rx="8.56" ry="10.12"/><ellipse class="cls-1" cx="121.13" cy="156.97" rx="8.56" ry="10.12"/><ellipse class="cls-1" cx="77.44" cy="101.62" rx="3.27" ry="4.77"/><polygon class="cls-1" points="64.9 103.32 76.76 116.57 90.88 103.24 64.9 103.32"/><ellipse class="cls-1" cx="85.33" cy="95.55" rx="8.56" ry="10.12"/><ellipse class="cls-1" cx="70.38" cy="95.55" rx="8.56" ry="10.12"/></g></svg>