<svg xmlns="http://www.w3.org/2000/svg" viewBox="0 0 150 200"><defs><style>.cls-1{fill:#ed2024;}</style></defs><title>cards</title><g id="heart"><ellipse class="cls-1" cx="41.32" cy="49.86" rx="3.27" ry="4.77"/><polygon class="cls-1" points="28.78 51.55 40.64 64.8 54.76 51.47 28.78 51.55"/><ellipse class="cls-1" cx="49.2" cy="43.78" rx="8.56" ry="10.12"/><ellipse class="cls-1" cx="34.26" cy="43.78" rx="8.56" ry="10.12"/><ellipse class="cls-1" cx="111.01" cy="50.21" rx="3.27" ry="4.77"/><polygon class="cls-1" points="98.47 51.9 110.34 65.16 124.46 51.82 98.47 51.9"/><ellipse class="cls-1" cx="118.9" cy="44.13" rx="8.56" ry="10.12"/><ellipse class="cls-1" cx="103.96" cy="44.13" rx="8.56" ry="10.12"/><ellipse class="cls-1" cx="41.58" cy="150.14" rx="3.27" ry="4.77"/><polygon class="cls-1" points="54.12 148.45 42.26 135.2 28.14 148.53 54.12 148.45"/><ellipse class="cls-1" cx="33.69" cy="156.22" rx="8.56" ry="10.12"/><ellipse class="cls-1" cx="48.64" cy="156.22" rx="8.56" ry="10.12"/><ellipse class="cls-1" cx="114.7" cy="151.12" rx="3.27" ry="4.77"/><polygon class="cls-1" points="127.24 149.43 115.37 136.18 101.25 149.51 127.24 149.43"/><ellipse class="cls-1" cx="106.81" cy="157.2" rx="8.56" ry="10.12"/><ellipse class="cls-1" cx="121.76" cy="157.2" rx="8.56" ry="10.12"/><ellipse class="cls-1" cx="40.9" cy="101.51" rx="3.27" ry="4.77"/><polygon class="cls-1" points="28.36 103.21 40.23 116.46 54.34 103.13 28.36 103.21"/><ellipse class="cls-1" cx="48.79" cy="95.44" rx="8.56" ry="10.12"/><ellipse class="cls-1" cx="33.84" cy="95.44" rx="8.56" ry="10.12"/><ellipse class="cls-1" cx="112.1" cy="100.62" rx="3.27" ry="4.77"/><polygon class="cls-1" points="99.56 102.32 111.43 115.57 125.55 102.24 99.56 102.32"/><ellipse class="cls-1" cx="119.99" cy="94.55" rx="8.56" ry="10.12"/><ellipse class="cls-1" cx="105.05" cy="94.55" rx="8.56" ry="10.12"/></g></svg>