<svg xmlns="http://www.w3.org/2000/svg" viewBox="0 0 150 200"><title>cards</title><g id="club"><circle cx="29.67" cy="48.3" r="8.63"/><circle cx="38.3" cy="35.41" r="8.63"/><circle cx="46.93" cy="48.3" r="8.63"/><path d="M32.23,62.19s5.34-3.79,4.62-19.14h3.07s.51,18.63,4.44,19.14Z"/><circle cx="120.33" cy="149.37" r="8.63"/><circle cx="111.7" cy="162.26" r="8.63"/><circle cx="103.07" cy="149.37" r="8.63"/><path d="M117.77,135.48s-5.34,3.79-4.62,19.14h-3.07s-.51-18.62-4.44-19.14Z"/><circle cx="101.27" cy="48.25" r="8.63"/><circle cx="109.9" cy="35.36" r="8.63"/><circle cx="118.52" cy="48.25" r="8.63"/><path d="M103.83,62.13s5.33-3.78,4.61-19.13h3.08S112,61.62,116,62.13Z"/><circle cx="47.93" cy="149.72" r="8.63"/><circle cx="39.3" cy="162.61" r="8.63"/><circle cx="30.67" cy="149.72" r="8.63"/><path d="M45.36,135.83S40,139.62,40.75,155H37.67s-.51-18.63-4.44-19.14Z"/><circle cx="29.67" cy="101.7" r="8.63"/><circle cx="38.3" cy="88.81" r="8.63"/><circle cx="46.93" cy="101.7" r="8.63"/><path d="M32.23,115.59s5.34-3.79,4.62-19.14h3.07s.51,18.63,4.44,19.14Z"/><circle cx="101.27" cy="101.13" r="8.63"/><circle cx="109.9" cy="88.24" r="8.63"/><circle cx="118.52" cy="101.13" r="8.63"/><path d="M103.83,115s5.33-3.79,4.61-19.14h3.08S112,114.51,116,115Z"/><circle cx="66.37" cy="78.13" r="8.63"/><circle cx="75" cy="65.24" r="8.63"/><circle cx="83.63" cy="78.13" r="8.63"/><path d="M68.93,92s5.34-3.79,4.62-19.14h3.07S77.14,91.51,81.07,92Z"/></g></svg>