<svg id="diamond" xmlns="http://www.w3.org/2000/svg" viewBox="0 0 150 200"><defs><style>.cls-1{fill:#ed2024;}</style></defs><title>cards</title><rect class="cls-1" x="31.2" y="26.36" width="23.27" height="23.27" transform="translate(39.42 -19.16) rotate(45)"/><rect class="cls-1" x="98.57" y="144.68" width="23.27" height="23.27" transform="translate(142.81 -32.15) rotate(45)"/><rect class="cls-1" x="98.57" y="27.3" width="23.27" height="23.27" transform="translate(59.82 -66.53) rotate(45)"/><rect class="cls-1" x="31.19" y="144.68" width="23.27" height="23.27" transform="translate(123.07 15.5) rotate(45)"/><rect class="cls-1" x="31.19" y="64.61" width="23.27" height="23.27" transform="translate(66.46 -7.95) rotate(45)"/><rect class="cls-1" x="98.82" y="64.61" width="23.27" height="23.27" transform="translate(86.27 -55.77) rotate(45)"/><rect class="cls-1" x="98.57" y="104.64" width="23.27" height="23.27" transform="translate(114.5 -43.87) rotate(45)"/><rect class="cls-1" x="31.2" y="104.64" width="23.27" height="23.27" transform="translate(94.77 3.77) rotate(45)"/><rect class="cls-1" x="64.89" y="45.59" width="23.27" height="23.27" transform="translate(62.88 -37.35) rotate(45)"/></svg>