<svg xmlns="http://www.w3.org/2000/svg" viewBox="0 0 150 200"><title>cards</title><g id="spade"><ellipse cx="37.01" cy="36.43" rx="3" ry="4.38" transform="translate(-0.3 0.31) rotate(-0.48)"/><polygon points="48.49 34.78 37.51 22.73 24.68 35.05 48.49 34.78"/><ellipse cx="29.83" cy="42.06" rx="7.85" ry="9.27" transform="translate(-0.35 0.25) rotate(-0.48)"/><ellipse cx="43.52" cy="41.94" rx="7.85" ry="9.27" transform="translate(-0.35 0.36) rotate(-0.48)"/><path d="M38.08,48.6s.27,8.32,3.34,9.38l-9.37.07s3.56-2.08,3.33-9.43S38.08,48.6,38.08,48.6Z"/><ellipse cx="36.09" cy="169.58" rx="3" ry="4.38" transform="translate(-1.41 0.31) rotate(-0.48)"/><polygon points="24.61 171.23 35.59 183.28 48.42 170.96 24.61 171.23"/><ellipse cx="43.27" cy="163.95" rx="7.85" ry="9.27" transform="translate(-1.36 0.37) rotate(-0.48)"/><ellipse cx="29.58" cy="164.07" rx="7.85" ry="9.27" transform="translate(-1.36 0.25) rotate(-0.48)"/><path d="M35,157.41s-.27-8.33-3.34-9.38l9.37-.08s-3.56,2.09-3.33,9.44S35,157.41,35,157.41Z"/><ellipse cx="115.02" cy="36.39" rx="3" ry="4.38" transform="translate(-0.3 0.96) rotate(-0.48)"/><polygon points="126.5 34.74 115.52 22.69 102.69 35.01 126.5 34.74"/><ellipse cx="107.83" cy="42.02" rx="7.85" ry="9.27" transform="translate(-0.35 0.9) rotate(-0.48)"/><ellipse cx="121.53" cy="41.9" rx="7.85" ry="9.27" transform="translate(-0.34 1.01) rotate(-0.48)"/><path d="M116.09,48.56s.26,8.32,3.34,9.38l-9.37.07s3.56-2.08,3.33-9.43S116.09,48.56,116.09,48.56Z"/><ellipse cx="114.83" cy="168.54" rx="3" ry="4.38" transform="translate(-1.4 0.96) rotate(-0.48)"/><polygon points="103.35 170.19 114.33 182.24 127.16 169.92 103.35 170.19"/><ellipse cx="122.01" cy="162.91" rx="7.85" ry="9.27" transform="translate(-1.35 1.02) rotate(-0.48)"/><ellipse cx="108.32" cy="163.03" rx="7.85" ry="9.27" transform="translate(-1.35 0.91) rotate(-0.48)"/><path d="M113.76,156.37s-.27-8.32-3.35-9.38l9.38-.08s-3.56,2.09-3.33,9.44S113.76,156.37,113.76,156.37Z"/><ellipse cx="36.92" cy="78.24" rx="3" ry="4.38" transform="translate(-0.65 0.31) rotate(-0.48)"/><polygon points="48.4 76.59 37.42 64.54 24.59 76.87 48.4 76.59"/><ellipse cx="29.73" cy="83.87" rx="7.85" ry="9.27" transform="translate(-0.7 0.25) rotate(-0.48)"/><ellipse cx="43.43" cy="83.76" rx="7.85" ry="9.27" transform="translate(-0.69 0.36) rotate(-0.48)"/><path d="M38,90.41s.27,8.33,3.34,9.38L32,99.87s3.56-2.09,3.33-9.44S38,90.41,38,90.41Z"/><ellipse cx="114.71" cy="76.49" rx="3" ry="4.38" transform="translate(-0.63 0.96) rotate(-0.48)"/><polygon points="126.19 74.84 115.21 62.79 102.38 75.11 126.19 74.84"/><ellipse cx="107.53" cy="82.12" rx="7.85" ry="9.27" transform="translate(-0.68 0.9) rotate(-0.48)"/><ellipse cx="121.22" cy="82" rx="7.85" ry="9.27" transform="translate(-0.68 1.01) rotate(-0.48)"/><path d="M115.78,88.66s.27,8.32,3.34,9.38l-9.37.07s3.56-2.08,3.33-9.43S115.78,88.66,115.78,88.66Z"/><ellipse cx="76.18" cy="64.99" rx="3" ry="4.38" transform="translate(-0.54 0.64) rotate(-0.48)"/><polygon points="87.66 63.34 76.68 51.28 63.84 63.61 87.66 63.34"/><ellipse cx="68.99" cy="70.61" rx="7.85" ry="9.27" transform="translate(-0.58 0.58) rotate(-0.48)"/><ellipse cx="82.69" cy="70.5" rx="7.85" ry="9.27" transform="translate(-0.58 0.69) rotate(-0.48)"/><path d="M77.25,77.16s.27,8.32,3.34,9.37l-9.37.08s3.56-2.08,3.33-9.43S77.25,77.16,77.25,77.16Z"/><ellipse cx="114.26" cy="126.96" rx="3" ry="4.38" transform="translate(-1.05 0.95) rotate(-0.48)"/><polygon points="102.78 128.6 113.75 140.66 126.59 128.33 102.78 128.6"/><ellipse cx="121.44" cy="121.33" rx="7.85" ry="9.27" transform="translate(-1 1.01) rotate(-0.48)"/><ellipse cx="107.74" cy="121.44" rx="7.85" ry="9.27" transform="translate(-1.01 0.9) rotate(-0.48)"/><path d="M113.19,114.79s-.27-8.33-3.35-9.38l9.37-.08s-3.56,2.09-3.32,9.44S113.19,114.79,113.19,114.79Z"/><ellipse cx="36.16" cy="128.21" rx="3" ry="4.38" transform="translate(-1.06 0.3) rotate(-0.48)"/><polygon points="24.68 129.86 35.65 141.91 48.49 129.59 24.68 129.86"/><ellipse cx="43.34" cy="122.59" rx="7.85" ry="9.27" transform="translate(-1.02 0.36) rotate(-0.48)"/><ellipse cx="29.64" cy="122.7" rx="7.85" ry="9.27" transform="translate(-1.02 0.25) rotate(-0.48)"/><path d="M35.09,116s-.27-8.32-3.35-9.37l9.37-.08s-3.56,2.08-3.32,9.43S35.09,116,35.09,116Z"/></g></svg>