<svg xmlns="http://www.w3.org/2000/svg" viewBox="0 0 150 200"><defs><style>.cls-1{font-size:100px;font-family:TimesNewRomanPS-BoldMT, Times New Roman;font-weight:700;}</style></defs><title>cards</title><g id="heart"><text class="cls-1" transform="translate(34.85 123.87)">Q</text></g><g id="spade"><ellipse cx="25.82" cy="22.88" rx="2.07" ry="3.02" transform="translate(-0.19 0.22) rotate(-0.48)"/><polygon points="33.74 21.74 26.17 13.42 17.31 21.93 33.74 21.74"/><ellipse cx="20.86" cy="26.76" rx="5.41" ry="6.4" transform="translate(-0.22 0.17) rotate(-0.48)"/><ellipse cx="30.31" cy="26.68" rx="5.41" ry="6.4" transform="translate(-0.22 0.25) rotate(-0.48)"/><path d="M26.56,31.27s.18,5.74,2.31,6.47l-6.47,0s2.45-1.44,2.29-6.5S26.56,31.27,26.56,31.27Z"/><ellipse cx="128.45" cy="177.03" rx="2.07" ry="3.02" transform="translate(-1.47 1.07) rotate(-0.48)"/><polygon points="120.53 178.17 128.11 186.49 136.96 177.98 120.53 178.17"/><ellipse cx="133.41" cy="173.15" rx="5.41" ry="6.4" transform="translate(-1.43 1.11) rotate(-0.48)"/><ellipse cx="123.96" cy="173.23" rx="5.41" ry="6.4" transform="translate(-1.44 1.04) rotate(-0.48)"/><path d="M127.72,168.64s-.19-5.75-2.31-6.47l6.46-.06s-2.45,1.44-2.29,6.51S127.72,168.64,127.72,168.64Z"/></g></svg>