<svg xmlns="http://www.w3.org/2000/svg" viewBox="0 0 150 200"><title>cards</title><g id="club"><circle cx="29.56" cy="47.05" r="8.63"/><circle cx="38.19" cy="34.16" r="8.63"/><circle cx="46.82" cy="47.05" r="8.63"/><path d="M32.13,60.93s5.33-3.78,4.61-19.13h3.08s.51,18.62,4.44,19.13Z"/><circle cx="120.44" cy="150.5" r="8.63"/><circle cx="111.81" cy="163.39" r="8.63"/><circle cx="103.18" cy="150.5" r="8.63"/><path d="M117.87,136.62s-5.33,3.78-4.61,19.13h-3.08s-.51-18.62-4.44-19.13Z"/><circle cx="66.37" cy="102.34" r="8.63"/><circle cx="75" cy="89.45" r="8.63"/><circle cx="83.63" cy="102.34" r="8.63"/><path d="M68.93,116.22s5.34-3.78,4.62-19.13h3.07s.52,18.62,4.45,19.13Z"/></g></svg>