<svg width="400" height="400" viewBox="0 0 400 400" fill="none" xmlns="http://www.w3.org/2000/svg">
<path d="M287.358 74.07C270.049 109.416 229.157 105.933 212.729 100.779C197.24 74.7728 216.249 50.1728 233.146 37.5213C252.274 23.1999 292.521 22.2928 312 25.5728C297.215 36.1156 302.847 42.4414 287.358 74.07Z" fill="#6DCE21"/>
<path d="M207.9 133L196 123.948C208.127 103.135 219.817 84.2395 233.8 71.7259C208.04 95.9674 206.733 123.493 207.9 133Z" fill="#518D22"/>
<path d="M280 39C270.065 42.6058 252.749 54.768 233.8 71.7259M233.8 71.7259C219.817 84.2395 208.127 103.135 196 123.948L207.9 133C206.733 123.493 208.04 95.9674 233.8 71.7259Z" stroke="#518D22"/>
<path d="M183.565 51L158 86.0394C195.496 108.465 197.295 131.357 193.507 140L207 133.693C205.296 106.222 190.667 67.1181 183.565 51Z" fill="#6A4A19"/>
<path d="M158.692 120.766C195.147 133.386 202.158 133.386 240.016 120.766C270.863 110.484 339.568 120.766 340.97 216.112C342.372 311.457 294.699 377.986 195.147 375.955C95.5953 373.923 56.3353 308.652 59.1395 216.112C61.9438 123.571 122.648 108.29 158.692 120.766Z" fill="#EC5C3D"/>
</svg>
