<svg width="400" height="400" viewBox="0 0 400 400" fill="none" xmlns="http://www.w3.org/2000/svg">
<path d="M231.981 354.734C205.837 386.664 172.673 363.2 162.99 354.734C155.123 245.881 124.662 191.051 94 182.988L97.0259 157.589C97.0259 157.589 98.5276 157.278 126.074 176.336C141.809 187.221 153.307 218.667 162.99 234.391C162.99 215.039 146.852 166.257 138.783 144.284C149.676 147.51 164.443 140.898 172.673 149.122C180.672 157.116 191.225 221.359 192.552 250.685C191.108 199.344 218.678 136.174 231.981 108C243.882 109.008 263.692 115.378 247.715 132.794C231.738 150.211 222.096 207.782 219.272 234.391C221.693 220.361 252.557 181.778 267.686 164.241L292.498 189.64C298.147 183.996 301.092 182.141 267.686 219.877C234.28 257.613 229.963 325.505 231.981 354.734Z" fill="#8FCD5D"/>
<path d="M129.212 170.917C134.669 177.34 140.612 191.509 120.722 196.807C124.765 204.634 129.212 220.289 114.658 220.289C100.105 220.289 97.2752 213.064 97.6795 209.451C92.222 216.275 80.9433 225.828 79.4879 209.451C71.2006 213.866 54.8686 217.519 55.8388 196.807C45.126 187.174 27.8561 152.494 57.4478 143.824C49.9691 128.571 43.2585 97.8241 76.2459 96.8608C85.948 77.594 112.508 48.5734 141.129 86.6253C143.959 75.587 153.014 58.8089 166.597 80.0023C173.672 63.5453 193.157 35.5683 214.502 55.3168C231.077 45.6834 266.409 35.2071 275.141 70.3689C288.279 67.1578 311.888 67.9606 301.215 96.8608C319.205 94.8538 353.122 100.112 344.875 137.201C354.779 144.225 368.646 160.802 344.875 170.917C354.577 180.952 366.705 202.226 337.599 207.043C329.513 219.084 310.917 235.943 301.215 207.043C287.875 202.226 265.196 188.258 281.205 170.917C276.273 173.588 261.8 183.561 255.13 170.917C251.101 182.918 231.838 189.029 230.349 179.767C230.382 187.514 224.833 191.388 207.225 191.388C185.222 191.388 186.017 167.809 186.491 162.387C186.03 164.915 183.766 170.917 172.661 170.917C158.593 170.917 157.502 162.087 158.714 157.672C156.087 164.495 149.101 187.294 129.212 170.917Z" fill="#087116"/>
<path d="M141.129 86.6253C112.508 48.5734 85.948 77.594 76.2459 96.8608C43.2585 97.8241 49.9691 128.571 57.4478 143.824C27.8561 152.494 45.126 187.174 55.8388 196.807C54.8686 217.519 71.2006 213.866 79.4879 209.451C80.9433 225.828 92.222 216.275 97.6795 209.451C97.2752 213.064 100.105 220.289 114.658 220.289C129.212 220.289 124.765 204.634 120.722 196.807C140.612 191.509 134.669 177.34 129.212 170.917C149.101 187.294 156.087 164.495 158.714 157.672C157.502 162.087 158.593 170.917 172.661 170.917C186.729 170.917 186.608 161.284 186.608 161.284C186.608 161.284 182.363 191.388 207.225 191.388C226.023 191.388 231.077 186.973 230.268 178.143C229.728 189.667 250.885 183.561 255.13 170.917C261.8 183.561 276.273 173.588 281.205 170.917C265.196 188.258 287.875 202.226 301.215 207.043C310.917 235.943 329.513 219.084 337.599 207.043C366.705 202.226 354.577 180.952 344.875 170.917C368.646 160.802 354.779 144.225 344.875 137.201C353.122 100.112 319.205 94.8538 301.215 96.8608C311.888 67.9606 288.279 67.1578 275.141 70.3689C266.409 35.2071 231.077 45.6834 214.502 55.3168C193.157 35.5683 173.672 63.5453 166.597 80.0023C153.014 58.8089 143.959 75.587 141.129 86.6253ZM141.129 86.6253C145.374 86.0232 152.772 87.2274 148.406 96.8608C151.842 101.075 151.316 109.384 141.129 108.903" stroke="#215729"/>
<path d="M129.291 170.664C122.728 174.723 105.989 178.468 105.989 167.603C96.282 174.846 83.344 169.343 91.7764 154.546C82.9353 154.546 80.1864 139.61 88.4712 136.689" stroke="#215729"/>
<path d="M269.198 143.461C257.065 141.046 255.538 123.641 269.198 120.018C260.081 110.868 274.035 100.607 282.528 107.897C280.453 99.4114 281.91 88.7864 300.677 97.2159" stroke="#215729"/>
</svg>
