<svg width="400" height="400" viewBox="0 0 400 400" fill="none" xmlns="http://www.w3.org/2000/svg">
<g clip-path="url(#clip0)">
<path d="M309.59 339.44C264.138 319.201 224.117 291.295 161.437 229.482C153.094 220.411 137.003 199.287 139.377 187.357C142.345 172.443 168.204 150.736 180.655 142.925C193.106 135.114 202.396 124.936 238.698 155.791C274.999 186.645 319.793 274.536 341.639 300.832C363.485 327.128 390.204 375.335 309.59 339.44Z" fill="#F8BF2D"/>
<path d="M171.297 91.6738C159.757 111.142 174.059 139.772 182.652 151.653C181.377 159.766 166.06 175.232 154.148 175.646C154.148 175.646 139.692 174.621 133.089 176.077C123.253 177.548 114.004 182.72 111.334 174.32C108.664 165.919 130.349 164.423 141.524 164.725C139.655 163.392 134.908 160.276 130.867 158.477C125.817 156.228 112.535 150.815 96.784 155.821C81.0328 160.827 81.0557 178.162 72.4584 171.742C65.8625 166.816 77.7834 148.161 95.8925 142.406C109.95 137.938 142.671 145.091 159.107 153.356C156.073 148.861 148.942 138.955 144.696 135.295C139.388 130.719 123.403 121.348 118.352 119.099C113.302 116.85 93.4163 116.426 86.3582 112.407C65.7719 100.684 49.0932 108.835 41.8925 114.977C34.6917 121.12 28.2306 115.947 43.5478 100.481C55.8015 88.1083 84.1695 95.9208 96.8217 101.374C87.6302 94.1786 64.7471 74.5662 45.9222 76.1218C23.3909 77.9837 18.8393 71.2409 42.7239 66.0585C79.0654 58.1733 154.759 132.096 146.592 113.978C138.425 95.859 138.758 51.4341 147.851 34.574C155 21.3194 171.678 23.1474 158.504 51.4207C151.832 65.74 152.586 86.8619 155.546 96.6799C161.51 82.0989 178.852 49.9637 200.507 38.0711C222.163 26.1785 212.416 48.2567 204.34 54.6771C197.511 58.4532 182.838 72.2054 171.297 91.6738Z" fill="#5B9F23"/>
<path d="M150.513 190.562C162.591 188.65 178.515 181.662 196.081 161.146" stroke="#DE9F23" stroke-width="4" stroke-linecap="round"/>
<path d="M182.45 245.886C181.347 245.824 180.403 246.668 180.341 247.771C180.278 248.873 181.122 249.818 182.225 249.88L182.45 245.886ZM235.13 221.389C235.898 220.595 235.876 219.329 235.081 218.561C234.287 217.794 233.02 217.816 232.253 218.611L235.13 221.389ZM197.311 260.06C196.225 259.86 195.182 260.578 194.982 261.664C194.782 262.75 195.5 263.793 196.586 263.994L197.311 260.06ZM236.125 246.194C236.951 245.461 237.026 244.197 236.293 243.371C235.56 242.545 234.296 242.47 233.47 243.203L236.125 246.194ZM182.225 249.88C185.19 250.047 189.076 249.214 193.311 247.776C197.599 246.32 202.436 244.177 207.378 241.556C217.244 236.322 227.695 229.089 235.13 221.389L232.253 218.611C225.191 225.924 215.115 232.923 205.503 238.022C200.706 240.567 196.067 242.616 192.025 243.988C187.931 245.378 184.635 246.009 182.45 245.886L182.225 249.88ZM196.586 263.994C199.011 264.44 202.227 263.85 205.541 262.842C208.944 261.808 212.774 260.229 216.576 258.396C224.149 254.747 231.874 249.968 236.125 246.194L233.47 243.203C229.605 246.633 222.244 251.225 214.84 254.793C211.154 256.569 207.523 258.059 204.378 259.015C201.144 259.999 198.725 260.32 197.311 260.06L196.586 263.994Z" fill="#DE9F23"/>
<path d="M318 268C315.94 272.773 307.52 284.211 290.322 291.778" stroke="#DE9F23" stroke-width="4" stroke-linecap="round"/>
<path d="M342.936 304C340.428 307.957 333.475 316.45 325.727 318.769" stroke="#DE9F23" stroke-width="4" stroke-linecap="round"/>
</g>
<defs>
<clipPath id="clip0">
<rect width="400" height="400" fill="white"/>
</clipPath>
</defs>
</svg>
