<svg width="307" height="414" viewBox="0 0 307 414" fill="none" xmlns="http://www.w3.org/2000/svg">
<g clip-path="url(#clip0)">
<path d="M247.619 373.216C203.796 341.345 167.498 302.539 114.758 222.475C107.93 210.92 95.5828 184.768 100.819 172.598C107.364 157.386 139.834 140.131 154.869 134.636C169.904 129.141 182.109 120.407 213.776 161.51C245.443 202.613 273.214 306.397 290.518 339.364C307.821 372.331 325.343 429.743 247.619 373.216Z" fill="#F8BF2D"/>
<path d="M156.531 77.9205C139.821 96.0395 148.559 129.781 155.017 144.386C151.817 152.739 131.993 165.738 119.21 163.476C119.21 163.476 104.044 159.103 96.6806 159.156C85.8694 158.491 74.8445 161.902 73.9067 152.348C72.9688 142.794 96.4059 146.12 108.242 148.978C106.553 147.134 102.203 142.738 98.3078 139.905C93.4386 136.364 80.5191 127.584 62.6052 129.342C44.6913 131.1 40.7824 149.571 33.0814 140.781C27.1732 134.037 44.1039 116.872 64.6995 114.85C80.6875 113.281 113.918 128.324 129.55 140.857C127.338 135.381 121.99 123.211 118.298 118.349C113.682 112.271 98.781 98.6613 93.9118 95.12C89.0425 91.5787 67.9568 86.6148 61.3505 80.7321C42.0822 63.574 22.4668 68.472 13.403 73.3809C4.33908 78.2898 -1.36957 71.3141 18.4554 58.3153C34.3154 47.9162 62.7599 62.6747 74.9996 71.3539C66.8415 61.6042 46.9168 35.5211 26.5118 32.9067C2.08931 29.7776 -1.22909 21.5624 25.3884 21.4617C65.8881 21.3085 129.743 117.225 125.154 96.0725C120.566 74.9195 131 27.6743 144.512 11.7784C155.135 -0.718209 172.485 5.01331 152.037 32.1405C141.681 45.8793 137.692 68.5493 138.617 79.6789C148.278 65.5006 174.042 35.2055 199.808 27.4514C225.574 19.6973 210.181 41.0029 200.122 46.0095C191.992 48.4823 173.241 59.8014 156.531 77.9205Z" fill="#5B9F23"/>
<path d="M111.953 178.539C125.252 179.243 143.8 175.412 167.166 157.544" stroke="#DE9F23" stroke-width="4" stroke-linecap="round"/>
<path d="M132.255 245.004C131.189 244.714 130.09 245.342 129.799 246.408C129.509 247.473 130.137 248.573 131.203 248.863L132.255 245.004ZM193.875 230.544C194.791 229.927 195.034 228.684 194.416 227.768C193.799 226.852 192.556 226.61 191.64 227.227L193.875 230.544ZM144.848 263.467C143.827 263.044 142.658 263.53 142.235 264.551C141.813 265.571 142.299 266.741 143.319 267.163L144.848 263.467ZM189.318 257.185C190.279 256.64 190.616 255.419 190.071 254.458C189.526 253.497 188.305 253.16 187.344 253.706L189.318 257.185ZM131.203 248.863C134.29 249.705 138.591 249.703 143.422 249.133C148.307 248.557 153.937 247.374 159.789 245.704C171.473 242.371 184.228 237.045 193.875 230.544L191.64 227.227C182.438 233.428 170.099 238.604 158.691 241.858C152.997 243.482 147.581 244.615 142.953 245.16C138.27 245.713 134.588 245.64 132.255 245.004L131.203 248.863ZM143.319 267.163C145.758 268.171 149.281 268.277 153.036 267.956C156.883 267.627 161.311 266.816 165.772 265.728C174.658 263.562 183.954 260.228 189.318 257.185L187.344 253.706C182.429 256.494 173.529 259.72 164.824 261.842C160.49 262.899 156.274 263.664 152.695 263.97C149.024 264.284 146.337 264.082 144.848 263.467L143.319 267.163Z" fill="#DE9F23"/>
<path d="M273.526 299.332C270.118 303.853 258.265 313.792 238.119 317.377" stroke="#DE9F23" stroke-width="4" stroke-linecap="round"/>
<path d="M292.597 345.189C288.926 348.731 279.383 355.931 270.586 356.392" stroke="#DE9F23" stroke-width="4" stroke-linecap="round"/>
</g>
<defs>
<clipPath id="clip0">
<rect width="307" height="414" fill="white"/>
</clipPath>
</defs>
</svg>
