<svg width="400" height="400" viewBox="0 0 400 400" fill="none" xmlns="http://www.w3.org/2000/svg">
<path d="M151.5 52C189.5 59 152 232 126 248.5L133.5 251C167.1 210.2 179 107.5 179 75C236 123.5 276.5 210.833 278 237H284C277.2 171.4 208.5 92.5 162.5 37L151.5 52Z" fill="#518D22"/>
<path d="M288.899 343.26C193.595 358.408 194.768 235.197 243.655 227.426C262.913 224.365 265.627 235.072 281.429 232.56C297.23 230.049 297.819 222.204 311.698 219.142C352.785 210.08 402.967 325.129 288.899 343.26Z" fill="#C51636"/>
<path d="M97.6574 341.558C4.51366 316.33 56.065 204.415 103.843 217.356C122.665 222.454 120.755 233.332 136.198 237.515C151.642 241.698 155.393 234.783 169.307 237.677C210.5 246.244 209.141 371.754 97.6574 341.558Z" fill="#C51636"/>
</svg>
