<svg width="283" height="195" viewBox="0 0 283 195" fill="none" xmlns="http://www.w3.org/2000/svg">
<path d="M283 195H0C0 181.5 22.8484 113 132.915 113C239.755 113 269.645 168.5 283 195Z" fill="#A57415"/>
<path d="M114.5 93.0001C92.0999 95.0001 96.1664 110.833 101 117.5C111 124 154.486 136.528 163.5 118.5C170 105.5 168 97 161.5 94.5001C158.661 93.4083 142.5 90.5001 114.5 93.0001Z" fill="#F8BF2D"/>
<path d="M171.108 54.0042C155.169 54.0042 146.108 79.9049 144.108 96.0716C137.309 101.272 127.108 98.4168 121.108 96.2502C118.108 90.2502 117.108 82.0716 109.608 73.2502C106.354 69.4219 100.608 59.0716 90.1084 67.0716C84.7577 71.1483 72.6084 67.0716 90.1084 53.5716C107.608 40.0716 127.108 76.5716 126.608 73.0716C126.108 69.5716 121.1 41.026 122.608 27.0716C124.608 8.57159 134.108 -0.928409 148.608 0.0715914C163.109 1.07159 151.608 12.0716 144.108 18.0716C137.201 23.5977 139.608 45.9049 140.608 59.0716C143.108 54.5716 150.13 44.1334 153.108 42.0716C159.608 37.5716 169.108 37.5716 177.108 37.5716C185.108 37.5716 195.108 40.0716 199.108 46.5716C204.144 54.7546 203.608 58.5042 194.108 59.0042C189.108 59.0042 188.608 54.0042 171.108 54.0042Z" fill="#5B9F23"/>
<path d="M102.971 102.099C114.144 109.346 122.834 109.824 152 106" stroke="#DE9F23" stroke-width="4" stroke-linecap="round"/>
</svg>
