<svg width="152" height="152" viewBox="0 0 152 152" fill="none" xmlns="http://www.w3.org/2000/svg">
<circle cx="76" cy="76" r="74" stroke="white" stroke-width="4"/>
<path d="M48.1718 121.978C44.9926 123.996 36.631 124.233 28.7335 114.784C8.43764 90.4991 22.8182 52.5474 44.9926 44C47.1189 64.1474 76.9939 73.5596 70.2917 101.033C68.7981 107.156 66.7653 110.7 62.0031 114.784M39.2211 69.3368C35.6692 101.033 46.5689 114.784 62.0031 124.233C62.0031 124.233 68.0476 128.744 86 131" stroke="white" stroke-width="4" stroke-linecap="round"/>
<path d="M103.393 34.0222C106.619 32.0041 115.106 31.7667 123.121 41.2162C143.72 65.5008 129.125 103.453 106.619 112C104.461 91.8526 74.1405 82.4404 80.9428 54.9667C82.4586 48.8444 84.5218 45.3 89.3551 41.2162M112.477 86.6632C116.082 54.9667 105.02 41.2162 89.3551 31.7667C89.3551 31.7667 83.2203 27.2555 65 25" stroke="white" stroke-width="4" stroke-linecap="round"/>
</svg>
