<svg width="400" height="400" viewBox="0 0 400 400" fill="none" xmlns="http://www.w3.org/2000/svg">
<path d="M170.728 75.8101C146.555 101.192 153.798 147.846 160.442 168C196.959 149.323 200.945 84.7896 198.373 54.8578C199.23 51.266 194.901 50.4279 170.728 75.8101Z" fill="#5B9F23" stroke="#518D22"/>
<path d="M75.5814 146.455C105.872 130.807 135.028 154.738 145.82 168.659C113.919 199.272 66.4019 180.451 46.6308 167.214C43.66 166.815 45.291 162.103 75.5814 146.455Z" fill="#5B9F23" stroke="#518D22"/>
<path d="M115.118 134.771C113.695 172.216 145.164 177.7 161.077 175.761C174.477 125.25 140.186 100.497 121.365 94.4347C119.875 92.2782 116.541 97.3264 115.118 134.771Z" fill="#5B9F23" stroke="#44771A"/>
<path d="M265.5 319.5C265.5 334.395 252.981 346.5 237.5 346.5C222.019 346.5 209.5 334.395 209.5 319.5C209.5 304.605 222.019 292.5 237.5 292.5C252.981 292.5 265.5 304.605 265.5 319.5Z" fill="#F56375" stroke="#9F1C2C"/>
<circle cx="301.5" cy="273.5" r="27" fill="#F56375" stroke="#9F1C2C"/>
<path d="M302.5 308.5C302.5 322.842 290.429 334.5 275.5 334.5C260.571 334.5 248.5 322.842 248.5 308.5C248.5 294.158 260.571 282.5 275.5 282.5C290.429 282.5 302.5 294.158 302.5 308.5Z" fill="#F56375" stroke="#9F1C2C"/>
<path d="M225.5 306.5C225.5 321.403 213.196 333.5 198 333.5C182.804 333.5 170.5 321.403 170.5 306.5C170.5 291.597 182.804 279.5 198 279.5C213.196 279.5 225.5 291.597 225.5 306.5Z" fill="#F56375" stroke="#9F1C2C"/>
<path d="M319.5 228.5C319.5 243.42 307.627 255.5 293 255.5C278.373 255.5 266.5 243.42 266.5 228.5C266.5 213.58 278.373 201.5 293 201.5C307.627 201.5 319.5 213.58 319.5 228.5Z" fill="#F56375" stroke="#9F1C2C"/>
<path d="M302.5 259C302.5 274.18 289.972 286.5 274.5 286.5C259.028 286.5 246.5 274.18 246.5 259C246.5 243.82 259.028 231.5 274.5 231.5C289.972 231.5 302.5 243.82 302.5 259Z" fill="#F56375" stroke="#9F1C2C"/>
<path d="M265.5 284C265.5 299.18 252.972 311.5 237.5 311.5C222.028 311.5 209.5 299.18 209.5 284C209.5 268.82 222.028 256.5 237.5 256.5C252.972 256.5 265.5 268.82 265.5 284Z" fill="#F56375" stroke="#9F1C2C"/>
<path d="M125.5 213C125.5 228.732 112.524 241.5 96.5 241.5C80.4756 241.5 67.5 228.732 67.5 213C67.5 197.268 80.4756 184.5 96.5 184.5C112.524 184.5 125.5 197.268 125.5 213Z" fill="#F56375" stroke="#9F1C2C"/>
<path d="M164.5 201.5C164.5 217.508 151.3 230.5 135 230.5C118.7 230.5 105.5 217.508 105.5 201.5C105.5 185.492 118.7 172.5 135 172.5C151.3 172.5 164.5 185.492 164.5 201.5Z" fill="#F56375" stroke="#9F1C2C"/>
<path d="M243.5 119C243.5 135.3 230.508 148.5 214.5 148.5C198.492 148.5 185.5 135.3 185.5 119C185.5 102.7 198.492 89.5 214.5 89.5C230.508 89.5 243.5 102.7 243.5 119Z" fill="#F56375" stroke="#9F1C2C"/>
<path d="M229.5 150.5C229.5 167.061 215.852 180.5 199 180.5C182.148 180.5 168.5 167.061 168.5 150.5C168.5 133.939 182.148 120.5 199 120.5C215.852 120.5 229.5 133.939 229.5 150.5Z" fill="#F56375" stroke="#9F1C2C"/>
<path d="M198.5 184.5C198.5 201.076 185.285 214.5 169 214.5C152.715 214.5 139.5 201.076 139.5 184.5C139.5 167.924 152.715 154.5 169 154.5C185.285 154.5 198.5 167.924 198.5 184.5Z" fill="#F56375" stroke="#9F1C2C"/>
<circle cx="155" cy="278" r="29.5" fill="#F56375" stroke="#9F1C2C"/>
<circle cx="191" cy="266" r="29.5" fill="#F56375" stroke="#9F1C2C"/>
<circle cx="270" cy="184" r="29.5" fill="#F56375" stroke="#9F1C2C"/>
<path d="M285.5 214C285.5 230.277 271.86 243.5 255 243.5C238.14 243.5 224.5 230.277 224.5 214C224.5 197.723 238.14 184.5 255 184.5C271.86 184.5 285.5 197.723 285.5 214Z" fill="#F56375" stroke="#9F1C2C"/>
<path d="M253.5 244C253.5 260.285 240.076 273.5 223.5 273.5C206.924 273.5 193.5 260.285 193.5 244C193.5 227.715 206.924 214.5 223.5 214.5C240.076 214.5 253.5 227.715 253.5 244Z" fill="#F56375" stroke="#9F1C2C"/>
<path d="M153.5 249C153.5 266.42 140.046 280.5 123.5 280.5C106.954 280.5 93.5 266.42 93.5 249C93.5 231.58 106.954 217.5 123.5 217.5C140.046 217.5 153.5 231.58 153.5 249Z" fill="#F56375" stroke="#9F1C2C"/>
<path d="M191.5 235.5C191.5 252.628 177.837 266.5 161 266.5C144.163 266.5 130.5 252.628 130.5 235.5C130.5 218.372 144.163 204.5 161 204.5C177.837 204.5 191.5 218.372 191.5 235.5Z" fill="#F56375" stroke="#9F1C2C"/>
<circle cx="244.5" cy="151.5" r="31" fill="#F56375" stroke="#9F1C2C"/>
<path d="M258.5 183C258.5 199.837 244.628 213.5 227.5 213.5C210.372 213.5 196.5 199.837 196.5 183C196.5 166.163 210.372 152.5 227.5 152.5C244.628 152.5 258.5 166.163 258.5 183Z" fill="#F56375" stroke="#9F1C2C"/>
<path d="M232.5 213.5C232.5 230.053 218.636 243.5 201.5 243.5C184.364 243.5 170.5 230.053 170.5 213.5C170.5 196.947 184.364 183.5 201.5 183.5C218.636 183.5 232.5 196.947 232.5 213.5Z" fill="#F56375" stroke="#9F1C2C"/>
</svg>
