<svg width="428" height="236" viewBox="0 0 428 236" fill="none" xmlns="http://www.w3.org/2000/svg">
<g clip-path="url(#clip0)">
<path d="M10 10C10 4.47716 14.4772 0 20 0H272C277.523 0 282 4.47715 282 10V175C282 180.523 277.523 185 272 185H20C14.4771 185 10 180.523 10 175V10Z" fill="#B5BCA7"/>
<path d="M293.734 42H382.254C383.8 42 385.26 42.7158 386.207 43.9387L427.953 97.8483C428.632 98.7245 429 99.8014 429 100.91V180C429 182.761 426.761 185 424 185H380.604H288.734H4.99999C2.23857 185 0 182.761 0 180V173.657C0 170.896 2.23858 168.657 5 168.657H288.734V47C288.734 44.2386 290.973 42 293.734 42Z" fill="#C4C4C4"/>
<path d="M387 192C387 215.196 368.196 234 345 234C321.804 234 303 215.196 303 192C303 168.804 321.804 150 345 150C368.196 150 387 168.804 387 192Z" fill="#6F6969"/>
<path d="M116 194C116 217.196 97.196 236 74 236C50.804 236 32 217.196 32 194C32 170.804 50.804 152 74 152C97.196 152 116 170.804 116 194Z" fill="#6F6969"/>
<path d="M370.945 58H313C310.239 58 308 60.2386 308 63V98C308 100.761 310.239 103 313 103H397.036C401.15 103 403.504 98.3097 401.045 95.0117L374.954 60.0117C374.01 58.7458 372.524 58 370.945 58Z" fill="#EBFFFE"/>
<circle cx="74" cy="194" r="22" fill="#C4C4C4"/>
<ellipse cx="344.5" cy="191" rx="22.5" ry="22" fill="#C4C4C4"/>
<path d="M192.227 132.516C172.732 129.867 154.453 123.708 123.828 107.19C119.658 104.672 111.216 98.437 110.801 93.6466C110.283 87.6586 117.707 76.5582 121.574 72.2155C125.44 67.8728 127.845 62.9817 145.036 70.6717C162.228 78.3617 188.939 106.756 200.137 114.316C211.335 121.877 226.802 137.212 192.227 132.516Z" fill="#F8BF2D"/>
<path d="M111.987 53.9543C109.76 62.6192 118.354 71.9074 122.929 75.4684C123.342 78.689 119.239 86.2518 114.764 87.7246C114.764 87.7246 109.164 88.9321 106.819 90.2142C103.249 91.859 100.311 94.8441 98.3691 91.9501C96.4269 89.0561 104.491 86.093 108.765 84.9732C107.909 84.6736 105.763 84.0153 104.03 83.7787C101.865 83.4829 96.2258 82.8951 90.8016 86.5352C85.3774 90.1753 87.3029 96.7532 83.3302 95.2656C80.2824 94.1243 82.7438 85.7263 88.9799 81.5412C93.821 78.2924 107.03 77.3936 114.181 78.7154C112.533 77.3441 108.731 74.3716 106.715 73.4512C104.195 72.3006 97.0918 70.5088 94.9265 70.213C92.7612 69.9172 85.1675 71.9527 82.0445 71.2066C72.9355 69.0305 67.5071 73.9669 65.4536 77.094C63.4 80.221 60.376 78.9712 64.4789 71.4083C67.7612 65.358 79.3909 65.1902 84.7955 65.8626C80.5116 64.1466 69.6587 59.2293 62.6865 61.8992C54.3415 65.0947 51.8686 63.0378 60.36 58.4324C73.28 51.425 110.18 71.1255 105.077 65.1497C99.9745 59.1739 95.1886 42.2734 96.7753 34.8688C98.0227 29.0477 104.554 27.8994 102.681 40.0872C101.732 46.2598 104.354 54.1944 106.563 57.5944C107.214 51.4006 110.242 37.2866 117.146 30.3801C124.049 23.4736 122.791 32.9312 120.436 36.2605C118.262 38.4481 114.214 45.2893 111.987 53.9543Z" fill="#5B9F23"/>
</g>
<defs>
<clipPath id="clip0">
<rect width="428" height="236" fill="white"/>
</clipPath>
</defs>
</svg>
